G04 #@! TF.GenerationSoftware,KiCad,Pcbnew,(5.1.5)-2*
G04 #@! TF.CreationDate,2020-08-21T18:58:51+01:00*
G04 #@! TF.ProjectId,STM8S003F3_panel,53544d38-5330-4303-9346-335f70616e65,rev?*
G04 #@! TF.SameCoordinates,Original*
G04 #@! TF.FileFunction,Profile,NP*
%FSLAX46Y46*%
G04 Gerber Fmt 4.6, Leading zero omitted, Abs format (unit mm)*
G04 Created by KiCad (PCBNEW (5.1.5)-2) date 2020-08-21 18:58:51*
%MOMM*%
%LPD*%
G04 APERTURE LIST*
%ADD10C,0.254000*%
G04 APERTURE END LIST*
D10*
X152345600Y-91660100D02*
G75*
G02X152345600Y-93660100I0J-1000000D01*
G01*
X127929600Y-135252100D02*
G75*
G02X127929600Y-133252100I0J1000000D01*
G01*
X184761600Y-114456100D02*
X195761600Y-114456100D01*
X195761600Y-114456100D02*
X195761600Y-133252100D01*
X195761600Y-93660100D02*
X195761600Y-112456100D01*
X195761600Y-72864100D02*
X195761600Y-91660100D01*
X195761600Y-52068100D02*
X195761600Y-70864100D01*
X112513600Y-70864100D02*
X112513600Y-52068100D01*
X112513600Y-91660100D02*
X112513600Y-72864100D01*
X112513600Y-112456100D02*
X112513600Y-93660100D01*
X112513600Y-133252100D02*
X112513600Y-114456100D01*
X123929600Y-114456100D02*
X112513600Y-114456100D01*
X123929600Y-135252100D02*
X112513600Y-135252100D01*
X184761600Y-135252100D02*
X195761600Y-135252100D01*
X156345600Y-135252100D02*
X180761600Y-135252100D01*
X127929600Y-135252100D02*
X152345600Y-135252100D01*
X184761600Y-50068100D02*
X195761600Y-50068100D01*
X156345600Y-50068100D02*
X180761600Y-50068100D01*
X127929600Y-50068100D02*
X152345600Y-50068100D01*
X112513600Y-50068100D02*
X123929600Y-50068100D01*
X169345600Y-114456100D02*
X169345600Y-121456100D01*
X140929600Y-114456100D02*
X140929600Y-121456100D01*
X169345600Y-93660100D02*
X169345600Y-100660100D01*
X140929600Y-93660100D02*
X140929600Y-100660100D01*
X169345600Y-72864100D02*
X169345600Y-79864100D01*
X140929600Y-72864100D02*
X140929600Y-79864100D01*
X169345600Y-52068100D02*
X169345600Y-59068100D01*
X140929600Y-52068100D02*
X140929600Y-59068100D01*
X184761600Y-52068100D02*
G75*
G02X184761600Y-50068100I0J1000000D01*
G01*
X156345600Y-52068100D02*
G75*
G02X156345600Y-50068100I0J1000000D01*
G01*
X167345600Y-114456100D02*
X156345600Y-114456100D01*
X138929600Y-114456100D02*
X127929600Y-114456100D01*
X195761600Y-93660100D02*
X184761600Y-93660100D01*
X167345600Y-93660100D02*
X156345600Y-93660100D01*
X138929600Y-93660100D02*
X127929600Y-93660100D01*
X195761600Y-72864100D02*
X184761600Y-72864100D01*
X167345600Y-72864100D02*
X156345600Y-72864100D01*
X138929600Y-72864100D02*
X127929600Y-72864100D01*
X195761600Y-52068100D02*
X184761600Y-52068100D01*
X167345600Y-52068100D02*
X156345600Y-52068100D01*
X180761600Y-50068100D02*
G75*
G02X180761600Y-52068100I0J-1000000D01*
G01*
X152345600Y-50068100D02*
G75*
G02X152345600Y-52068100I0J-1000000D01*
G01*
X180761600Y-114456100D02*
X169345600Y-114456100D01*
X152345600Y-114456100D02*
X140929600Y-114456100D01*
X180761600Y-93660100D02*
X169345600Y-93660100D01*
X152345600Y-93660100D02*
X140929600Y-93660100D01*
X123929600Y-93660100D02*
X112513600Y-93660100D01*
X180761600Y-72864100D02*
X169345600Y-72864100D01*
X152345600Y-72864100D02*
X140929600Y-72864100D01*
X123929600Y-72864100D02*
X112513600Y-72864100D01*
X180761600Y-52068100D02*
X169345600Y-52068100D01*
X152345600Y-52068100D02*
X140929600Y-52068100D01*
X184761600Y-135252100D02*
G75*
G02X184761600Y-133252100I0J1000000D01*
G01*
X156345600Y-135252100D02*
G75*
G02X156345600Y-133252100I0J1000000D01*
G01*
X184761600Y-114456100D02*
G75*
G02X184761600Y-112456100I0J1000000D01*
G01*
X156345600Y-114456100D02*
G75*
G02X156345600Y-112456100I0J1000000D01*
G01*
X127929600Y-114456100D02*
G75*
G02X127929600Y-112456100I0J1000000D01*
G01*
X184761600Y-93660100D02*
G75*
G02X184761600Y-91660100I0J1000000D01*
G01*
X156345600Y-93660100D02*
G75*
G02X156345600Y-91660100I0J1000000D01*
G01*
X127929600Y-93660100D02*
G75*
G02X127929600Y-91660100I0J1000000D01*
G01*
X184761600Y-72864100D02*
G75*
G02X184761600Y-70864100I0J1000000D01*
G01*
X156345600Y-72864100D02*
G75*
G02X156345600Y-70864100I0J1000000D01*
G01*
X195761600Y-133252100D02*
X184761600Y-133252100D01*
X167345600Y-133252100D02*
X156345600Y-133252100D01*
X138929600Y-133252100D02*
X127929600Y-133252100D01*
X195761600Y-112456100D02*
X184761600Y-112456100D01*
X167345600Y-112456100D02*
X156345600Y-112456100D01*
X138929600Y-112456100D02*
X127929600Y-112456100D01*
X195761600Y-91660100D02*
X184761600Y-91660100D01*
X167345600Y-91660100D02*
X156345600Y-91660100D01*
X138929600Y-91660100D02*
X127929600Y-91660100D01*
X195761600Y-70864100D02*
X184761600Y-70864100D01*
X167345600Y-70864100D02*
X156345600Y-70864100D01*
X169345600Y-121456100D02*
G75*
G02X167345600Y-121456100I-1000000J0D01*
G01*
X140929600Y-121456100D02*
G75*
G02X138929600Y-121456100I-1000000J0D01*
G01*
X169345600Y-100660100D02*
G75*
G02X167345600Y-100660100I-1000000J0D01*
G01*
X140929600Y-100660100D02*
G75*
G02X138929600Y-100660100I-1000000J0D01*
G01*
X169345600Y-79864100D02*
G75*
G02X167345600Y-79864100I-1000000J0D01*
G01*
X140929600Y-79864100D02*
G75*
G02X138929600Y-79864100I-1000000J0D01*
G01*
X169345600Y-59068100D02*
G75*
G02X167345600Y-59068100I-1000000J0D01*
G01*
X169345600Y-125456100D02*
X169345600Y-133252100D01*
X140929600Y-125456100D02*
X140929600Y-133252100D01*
X169345600Y-104660100D02*
X169345600Y-112456100D01*
X140929600Y-104660100D02*
X140929600Y-112456100D01*
X169345600Y-83864100D02*
X169345600Y-91660100D01*
X140929600Y-83864100D02*
X140929600Y-91660100D01*
X169345600Y-63068100D02*
X169345600Y-70864100D01*
X140929600Y-63068100D02*
X140929600Y-70864100D01*
X180761600Y-133252100D02*
G75*
G02X180761600Y-135252100I0J-1000000D01*
G01*
X152345600Y-133252100D02*
G75*
G02X152345600Y-135252100I0J-1000000D01*
G01*
X123929600Y-133252100D02*
G75*
G02X123929600Y-135252100I0J-1000000D01*
G01*
X180761600Y-112456100D02*
G75*
G02X180761600Y-114456100I0J-1000000D01*
G01*
X152345600Y-112456100D02*
G75*
G02X152345600Y-114456100I0J-1000000D01*
G01*
X123929600Y-112456100D02*
G75*
G02X123929600Y-114456100I0J-1000000D01*
G01*
X180761600Y-91660100D02*
G75*
G02X180761600Y-93660100I0J-1000000D01*
G01*
X123929600Y-91660100D02*
G75*
G02X123929600Y-93660100I0J-1000000D01*
G01*
X180761600Y-70864100D02*
G75*
G02X180761600Y-72864100I0J-1000000D01*
G01*
X152345600Y-70864100D02*
G75*
G02X152345600Y-72864100I0J-1000000D01*
G01*
X167345600Y-114456100D02*
X167345600Y-121456100D01*
X138929600Y-114456100D02*
X138929600Y-121456100D01*
X167345600Y-93660100D02*
X167345600Y-100660100D01*
X138929600Y-93660100D02*
X138929600Y-100660100D01*
X167345600Y-72864100D02*
X167345600Y-79864100D01*
X138929600Y-72864100D02*
X138929600Y-79864100D01*
X167345600Y-52068100D02*
X167345600Y-59068100D01*
X180761600Y-133252100D02*
X169345600Y-133252100D01*
X152345600Y-133252100D02*
X140929600Y-133252100D01*
X123929600Y-133252100D02*
X112513600Y-133252100D01*
X180761600Y-112456100D02*
X169345600Y-112456100D01*
X152345600Y-112456100D02*
X140929600Y-112456100D01*
X123929600Y-112456100D02*
X112513600Y-112456100D01*
X180761600Y-91660100D02*
X169345600Y-91660100D01*
X152345600Y-91660100D02*
X140929600Y-91660100D01*
X123929600Y-91660100D02*
X112513600Y-91660100D01*
X180761600Y-70864100D02*
X169345600Y-70864100D01*
X152345600Y-70864100D02*
X140929600Y-70864100D01*
X167345600Y-125456100D02*
G75*
G02X169345600Y-125456100I1000000J0D01*
G01*
X138929600Y-125456100D02*
G75*
G02X140929600Y-125456100I1000000J0D01*
G01*
X167345600Y-104660100D02*
G75*
G02X169345600Y-104660100I1000000J0D01*
G01*
X138929600Y-104660100D02*
G75*
G02X140929600Y-104660100I1000000J0D01*
G01*
X167345600Y-83864100D02*
G75*
G02X169345600Y-83864100I1000000J0D01*
G01*
X138929600Y-83864100D02*
G75*
G02X140929600Y-83864100I1000000J0D01*
G01*
X167345600Y-63068100D02*
G75*
G02X169345600Y-63068100I1000000J0D01*
G01*
X167345600Y-125456100D02*
X167345600Y-133252100D01*
X138929600Y-125456100D02*
X138929600Y-133252100D01*
X167345600Y-104660100D02*
X167345600Y-112456100D01*
X138929600Y-104660100D02*
X138929600Y-112456100D01*
X167345600Y-83864100D02*
X167345600Y-91660100D01*
X138929600Y-83864100D02*
X138929600Y-91660100D01*
X167345600Y-63068100D02*
X167345600Y-70864100D01*
X123929600Y-70864100D02*
G75*
G02X123929600Y-72864100I0J-1000000D01*
G01*
X127929600Y-72864100D02*
G75*
G02X127929600Y-70864100I0J1000000D01*
G01*
X123929600Y-70864100D02*
X112513600Y-70864100D01*
X138929600Y-70864100D02*
X127929600Y-70864100D01*
X138929600Y-63068100D02*
G75*
G02X140929600Y-63068100I1000000J0D01*
G01*
X140929600Y-59068100D02*
G75*
G02X138929600Y-59068100I-1000000J0D01*
G01*
X138929600Y-63068100D02*
X138929600Y-70864100D01*
X138929600Y-52068100D02*
X138929600Y-59068100D01*
X123929600Y-52068100D02*
X112513600Y-52068100D01*
X123929600Y-50068100D02*
G75*
G02X123929600Y-52068100I0J-1000000D01*
G01*
X127929600Y-52068100D02*
G75*
G02X127929600Y-50068100I0J1000000D01*
G01*
X138929600Y-52068100D02*
X127929600Y-52068100D01*
X112513600Y-140252100D02*
X112513600Y-135252100D01*
X195761600Y-140252100D02*
X112513600Y-140252100D01*
X195761600Y-135252100D02*
X195761600Y-140252100D01*
X195761600Y-45068100D02*
X195761600Y-50068100D01*
X112513600Y-45068100D02*
X195761600Y-45068100D01*
X112513600Y-50068100D02*
X112513600Y-45068100D01*
M02*
