G04 #@! TF.GenerationSoftware,KiCad,Pcbnew,(5.1.5)-2*
G04 #@! TF.CreationDate,2020-08-21T18:58:50+01:00*
G04 #@! TF.ProjectId,STM8S003F3_panel,53544d38-5330-4303-9346-335f70616e65,rev?*
G04 #@! TF.SameCoordinates,Original*
G04 #@! TF.FileFunction,Legend,Top*
G04 #@! TF.FilePolarity,Positive*
%FSLAX46Y46*%
G04 Gerber Fmt 4.6, Leading zero omitted, Abs format (unit mm)*
G04 Created by KiCad (PCBNEW (5.1.5)-2) date 2020-08-21 18:58:50*
%MOMM*%
%LPD*%
G04 APERTURE LIST*
%ADD10C,0.152000*%
%ADD11C,0.100000*%
%ADD12C,0.120000*%
%ADD13C,0.150000*%
%ADD14C,0.152400*%
G04 APERTURE END LIST*
D10*
X175949600Y-128172100D02*
X176457600Y-127664100D01*
X147533600Y-128172100D02*
X148041600Y-127664100D01*
X119117600Y-128172100D02*
X119625600Y-127664100D01*
X175949600Y-107376100D02*
X176457600Y-106868100D01*
X147533600Y-107376100D02*
X148041600Y-106868100D01*
X119117600Y-107376100D02*
X119625600Y-106868100D01*
X175949600Y-86580100D02*
X176457600Y-86072100D01*
X147533600Y-86580100D02*
X148041600Y-86072100D01*
X119117600Y-86580100D02*
X119625600Y-86072100D01*
X175949600Y-65784100D02*
X176457600Y-65276100D01*
X147533600Y-65784100D02*
X148041600Y-65276100D01*
X172139600Y-117885100D02*
X174171600Y-118139100D01*
X143723600Y-117885100D02*
X145755600Y-118139100D01*
X115307600Y-117885100D02*
X117339600Y-118139100D01*
X172139600Y-97089100D02*
X174171600Y-97343100D01*
X143723600Y-97089100D02*
X145755600Y-97343100D01*
X115307600Y-97089100D02*
X117339600Y-97343100D01*
X172139600Y-76293100D02*
X174171600Y-76547100D01*
X143723600Y-76293100D02*
X145755600Y-76547100D01*
X115307600Y-76293100D02*
X117339600Y-76547100D01*
X172139600Y-55497100D02*
X174171600Y-55751100D01*
X143723600Y-55497100D02*
X145755600Y-55751100D01*
X184839600Y-125378100D02*
G75*
G03X184839600Y-125378100I-254000J0D01*
G01*
X156423600Y-125378100D02*
G75*
G03X156423600Y-125378100I-254000J0D01*
G01*
X128007600Y-125378100D02*
G75*
G03X128007600Y-125378100I-254000J0D01*
G01*
X184839600Y-104582100D02*
G75*
G03X184839600Y-104582100I-254000J0D01*
G01*
X156423600Y-104582100D02*
G75*
G03X156423600Y-104582100I-254000J0D01*
G01*
X128007600Y-104582100D02*
G75*
G03X128007600Y-104582100I-254000J0D01*
G01*
X184839600Y-83786100D02*
G75*
G03X184839600Y-83786100I-254000J0D01*
G01*
X156423600Y-83786100D02*
G75*
G03X156423600Y-83786100I-254000J0D01*
G01*
X128007600Y-83786100D02*
G75*
G03X128007600Y-83786100I-254000J0D01*
G01*
X184839600Y-62990100D02*
G75*
G03X184839600Y-62990100I-254000J0D01*
G01*
X156423600Y-62990100D02*
G75*
G03X156423600Y-62990100I-254000J0D01*
G01*
X128007600Y-62990100D02*
G75*
G03X128007600Y-62990100I-254000J0D01*
G01*
X115307600Y-55497100D02*
X117339600Y-55751100D01*
X119117600Y-65784100D02*
X119625600Y-65276100D01*
D11*
X123929600Y-72864100D02*
G75*
G03X123929600Y-70864100I0J1000000D01*
G01*
X127929600Y-70864100D02*
G75*
G03X127929600Y-72864100I0J-1000000D01*
G01*
X127929600Y-112456100D02*
G75*
G03X127929600Y-114456100I0J-1000000D01*
G01*
X123929600Y-114456100D02*
G75*
G03X123929600Y-112456100I0J1000000D01*
G01*
X156345600Y-112456100D02*
G75*
G03X156345600Y-114456100I0J-1000000D01*
G01*
X152345600Y-114456100D02*
G75*
G03X152345600Y-112456100I0J1000000D01*
G01*
X184761600Y-112456100D02*
G75*
G03X184761600Y-114456100I0J-1000000D01*
G01*
X180761600Y-114456100D02*
G75*
G03X180761600Y-112456100I0J1000000D01*
G01*
D12*
X170325600Y-120444100D02*
X176335600Y-120444100D01*
X172575600Y-127264100D02*
X176335600Y-127264100D01*
X176335600Y-120444100D02*
X176335600Y-121704100D01*
X176335600Y-127264100D02*
X176335600Y-126004100D01*
X141909600Y-120444100D02*
X147919600Y-120444100D01*
X144159600Y-127264100D02*
X147919600Y-127264100D01*
X147919600Y-120444100D02*
X147919600Y-121704100D01*
X147919600Y-127264100D02*
X147919600Y-126004100D01*
X113493600Y-120444100D02*
X119503600Y-120444100D01*
X115743600Y-127264100D02*
X119503600Y-127264100D01*
X119503600Y-120444100D02*
X119503600Y-121704100D01*
X119503600Y-127264100D02*
X119503600Y-126004100D01*
X170325600Y-99648100D02*
X176335600Y-99648100D01*
X172575600Y-106468100D02*
X176335600Y-106468100D01*
X176335600Y-99648100D02*
X176335600Y-100908100D01*
X176335600Y-106468100D02*
X176335600Y-105208100D01*
X141909600Y-99648100D02*
X147919600Y-99648100D01*
X144159600Y-106468100D02*
X147919600Y-106468100D01*
X147919600Y-99648100D02*
X147919600Y-100908100D01*
X147919600Y-106468100D02*
X147919600Y-105208100D01*
X113493600Y-99648100D02*
X119503600Y-99648100D01*
X115743600Y-106468100D02*
X119503600Y-106468100D01*
X119503600Y-99648100D02*
X119503600Y-100908100D01*
X119503600Y-106468100D02*
X119503600Y-105208100D01*
X170325600Y-78852100D02*
X176335600Y-78852100D01*
X172575600Y-85672100D02*
X176335600Y-85672100D01*
X176335600Y-78852100D02*
X176335600Y-80112100D01*
X176335600Y-85672100D02*
X176335600Y-84412100D01*
X141909600Y-78852100D02*
X147919600Y-78852100D01*
X144159600Y-85672100D02*
X147919600Y-85672100D01*
X147919600Y-78852100D02*
X147919600Y-80112100D01*
X147919600Y-85672100D02*
X147919600Y-84412100D01*
X113493600Y-78852100D02*
X119503600Y-78852100D01*
X115743600Y-85672100D02*
X119503600Y-85672100D01*
X119503600Y-78852100D02*
X119503600Y-80112100D01*
X119503600Y-85672100D02*
X119503600Y-84412100D01*
X170325600Y-58056100D02*
X176335600Y-58056100D01*
X172575600Y-64876100D02*
X176335600Y-64876100D01*
X176335600Y-58056100D02*
X176335600Y-59316100D01*
X176335600Y-64876100D02*
X176335600Y-63616100D01*
X141909600Y-58056100D02*
X147919600Y-58056100D01*
X144159600Y-64876100D02*
X147919600Y-64876100D01*
X147919600Y-58056100D02*
X147919600Y-59316100D01*
X147919600Y-64876100D02*
X147919600Y-63616100D01*
X176529500Y-129671000D02*
X178814500Y-129671000D01*
X178814500Y-129671000D02*
X178814500Y-128201000D01*
X178814500Y-128201000D02*
X176529500Y-128201000D01*
X148113500Y-129671000D02*
X150398500Y-129671000D01*
X150398500Y-129671000D02*
X150398500Y-128201000D01*
X150398500Y-128201000D02*
X148113500Y-128201000D01*
X119697500Y-129671000D02*
X121982500Y-129671000D01*
X121982500Y-129671000D02*
X121982500Y-128201000D01*
X121982500Y-128201000D02*
X119697500Y-128201000D01*
X176529500Y-108875000D02*
X178814500Y-108875000D01*
X178814500Y-108875000D02*
X178814500Y-107405000D01*
X178814500Y-107405000D02*
X176529500Y-107405000D01*
X148113500Y-108875000D02*
X150398500Y-108875000D01*
X150398500Y-108875000D02*
X150398500Y-107405000D01*
X150398500Y-107405000D02*
X148113500Y-107405000D01*
X119697500Y-108875000D02*
X121982500Y-108875000D01*
X121982500Y-108875000D02*
X121982500Y-107405000D01*
X121982500Y-107405000D02*
X119697500Y-107405000D01*
X176529500Y-88079000D02*
X178814500Y-88079000D01*
X178814500Y-88079000D02*
X178814500Y-86609000D01*
X178814500Y-86609000D02*
X176529500Y-86609000D01*
X148113500Y-88079000D02*
X150398500Y-88079000D01*
X150398500Y-88079000D02*
X150398500Y-86609000D01*
X150398500Y-86609000D02*
X148113500Y-86609000D01*
X119697500Y-88079000D02*
X121982500Y-88079000D01*
X121982500Y-88079000D02*
X121982500Y-86609000D01*
X121982500Y-86609000D02*
X119697500Y-86609000D01*
X176529500Y-67283000D02*
X178814500Y-67283000D01*
X178814500Y-67283000D02*
X178814500Y-65813000D01*
X178814500Y-65813000D02*
X176529500Y-65813000D01*
X148113500Y-67283000D02*
X150398500Y-67283000D01*
X150398500Y-67283000D02*
X150398500Y-65813000D01*
X150398500Y-65813000D02*
X148113500Y-65813000D01*
D13*
X183421600Y-127604100D02*
X183421600Y-121629100D01*
X190321600Y-126079100D02*
X190321600Y-121629100D01*
X155005600Y-127604100D02*
X155005600Y-121629100D01*
X161905600Y-126079100D02*
X161905600Y-121629100D01*
X126589600Y-127604100D02*
X126589600Y-121629100D01*
X133489600Y-126079100D02*
X133489600Y-121629100D01*
X183421600Y-106808100D02*
X183421600Y-100833100D01*
X190321600Y-105283100D02*
X190321600Y-100833100D01*
X155005600Y-106808100D02*
X155005600Y-100833100D01*
X161905600Y-105283100D02*
X161905600Y-100833100D01*
X126589600Y-106808100D02*
X126589600Y-100833100D01*
X133489600Y-105283100D02*
X133489600Y-100833100D01*
X183421600Y-86012100D02*
X183421600Y-80037100D01*
X190321600Y-84487100D02*
X190321600Y-80037100D01*
X155005600Y-86012100D02*
X155005600Y-80037100D01*
X161905600Y-84487100D02*
X161905600Y-80037100D01*
X126589600Y-86012100D02*
X126589600Y-80037100D01*
X133489600Y-84487100D02*
X133489600Y-80037100D01*
X183421600Y-65216100D02*
X183421600Y-59241100D01*
X190321600Y-63691100D02*
X190321600Y-59241100D01*
X155005600Y-65216100D02*
X155005600Y-59241100D01*
X161905600Y-63691100D02*
X161905600Y-59241100D01*
D12*
X178462600Y-121275100D02*
X178462600Y-118990100D01*
X176992600Y-121275100D02*
X178462600Y-121275100D01*
X176992600Y-118990100D02*
X176992600Y-121275100D01*
X150046600Y-121275100D02*
X150046600Y-118990100D01*
X148576600Y-121275100D02*
X150046600Y-121275100D01*
X148576600Y-118990100D02*
X148576600Y-121275100D01*
X121630600Y-121275100D02*
X121630600Y-118990100D01*
X120160600Y-121275100D02*
X121630600Y-121275100D01*
X120160600Y-118990100D02*
X120160600Y-121275100D01*
X178462600Y-100479100D02*
X178462600Y-98194100D01*
X176992600Y-100479100D02*
X178462600Y-100479100D01*
X176992600Y-98194100D02*
X176992600Y-100479100D01*
X150046600Y-100479100D02*
X150046600Y-98194100D01*
X148576600Y-100479100D02*
X150046600Y-100479100D01*
X148576600Y-98194100D02*
X148576600Y-100479100D01*
X121630600Y-100479100D02*
X121630600Y-98194100D01*
X120160600Y-100479100D02*
X121630600Y-100479100D01*
X120160600Y-98194100D02*
X120160600Y-100479100D01*
X178462600Y-79683100D02*
X178462600Y-77398100D01*
X176992600Y-79683100D02*
X178462600Y-79683100D01*
X176992600Y-77398100D02*
X176992600Y-79683100D01*
X150046600Y-79683100D02*
X150046600Y-77398100D01*
X148576600Y-79683100D02*
X150046600Y-79683100D01*
X148576600Y-77398100D02*
X148576600Y-79683100D01*
X121630600Y-79683100D02*
X121630600Y-77398100D01*
X120160600Y-79683100D02*
X121630600Y-79683100D01*
X120160600Y-77398100D02*
X120160600Y-79683100D01*
X178462600Y-58887100D02*
X178462600Y-56602100D01*
X176992600Y-58887100D02*
X178462600Y-58887100D01*
X176992600Y-56602100D02*
X176992600Y-58887100D01*
X150046600Y-58887100D02*
X150046600Y-56602100D01*
X148576600Y-58887100D02*
X150046600Y-58887100D01*
X148576600Y-56602100D02*
X148576600Y-58887100D01*
X195068000Y-118716000D02*
X192408000Y-118716000D01*
X195068000Y-126396000D02*
X195068000Y-118716000D01*
X192408000Y-126396000D02*
X192408000Y-118716000D01*
X195068000Y-126396000D02*
X192408000Y-126396000D01*
X195068000Y-127666000D02*
X195068000Y-128996000D01*
X195068000Y-128996000D02*
X193738000Y-128996000D01*
X166652000Y-118716000D02*
X163992000Y-118716000D01*
X166652000Y-126396000D02*
X166652000Y-118716000D01*
X163992000Y-126396000D02*
X163992000Y-118716000D01*
X166652000Y-126396000D02*
X163992000Y-126396000D01*
X166652000Y-127666000D02*
X166652000Y-128996000D01*
X166652000Y-128996000D02*
X165322000Y-128996000D01*
X138236000Y-118716000D02*
X135576000Y-118716000D01*
X138236000Y-126396000D02*
X138236000Y-118716000D01*
X135576000Y-126396000D02*
X135576000Y-118716000D01*
X138236000Y-126396000D02*
X135576000Y-126396000D01*
X138236000Y-127666000D02*
X138236000Y-128996000D01*
X138236000Y-128996000D02*
X136906000Y-128996000D01*
X195068000Y-97920000D02*
X192408000Y-97920000D01*
X195068000Y-105600000D02*
X195068000Y-97920000D01*
X192408000Y-105600000D02*
X192408000Y-97920000D01*
X195068000Y-105600000D02*
X192408000Y-105600000D01*
X195068000Y-106870000D02*
X195068000Y-108200000D01*
X195068000Y-108200000D02*
X193738000Y-108200000D01*
X166652000Y-97920000D02*
X163992000Y-97920000D01*
X166652000Y-105600000D02*
X166652000Y-97920000D01*
X163992000Y-105600000D02*
X163992000Y-97920000D01*
X166652000Y-105600000D02*
X163992000Y-105600000D01*
X166652000Y-106870000D02*
X166652000Y-108200000D01*
X166652000Y-108200000D02*
X165322000Y-108200000D01*
X138236000Y-97920000D02*
X135576000Y-97920000D01*
X138236000Y-105600000D02*
X138236000Y-97920000D01*
X135576000Y-105600000D02*
X135576000Y-97920000D01*
X138236000Y-105600000D02*
X135576000Y-105600000D01*
X138236000Y-106870000D02*
X138236000Y-108200000D01*
X138236000Y-108200000D02*
X136906000Y-108200000D01*
X195068000Y-77124000D02*
X192408000Y-77124000D01*
X195068000Y-84804000D02*
X195068000Y-77124000D01*
X192408000Y-84804000D02*
X192408000Y-77124000D01*
X195068000Y-84804000D02*
X192408000Y-84804000D01*
X195068000Y-86074000D02*
X195068000Y-87404000D01*
X195068000Y-87404000D02*
X193738000Y-87404000D01*
X166652000Y-77124000D02*
X163992000Y-77124000D01*
X166652000Y-84804000D02*
X166652000Y-77124000D01*
X163992000Y-84804000D02*
X163992000Y-77124000D01*
X166652000Y-84804000D02*
X163992000Y-84804000D01*
X166652000Y-86074000D02*
X166652000Y-87404000D01*
X166652000Y-87404000D02*
X165322000Y-87404000D01*
X138236000Y-77124000D02*
X135576000Y-77124000D01*
X138236000Y-84804000D02*
X138236000Y-77124000D01*
X135576000Y-84804000D02*
X135576000Y-77124000D01*
X138236000Y-84804000D02*
X135576000Y-84804000D01*
X138236000Y-86074000D02*
X138236000Y-87404000D01*
X138236000Y-87404000D02*
X136906000Y-87404000D01*
X195068000Y-56328000D02*
X192408000Y-56328000D01*
X195068000Y-64008000D02*
X195068000Y-56328000D01*
X192408000Y-64008000D02*
X192408000Y-56328000D01*
X195068000Y-64008000D02*
X192408000Y-64008000D01*
X195068000Y-65278000D02*
X195068000Y-66608000D01*
X195068000Y-66608000D02*
X193738000Y-66608000D01*
X166652000Y-56328000D02*
X163992000Y-56328000D01*
X166652000Y-64008000D02*
X166652000Y-56328000D01*
X163992000Y-64008000D02*
X163992000Y-56328000D01*
X166652000Y-64008000D02*
X163992000Y-64008000D01*
X166652000Y-65278000D02*
X166652000Y-66608000D01*
X166652000Y-66608000D02*
X165322000Y-66608000D01*
X171506821Y-129508100D02*
X171832379Y-129508100D01*
X171506821Y-128488100D02*
X171832379Y-128488100D01*
X143090821Y-129508100D02*
X143416379Y-129508100D01*
X143090821Y-128488100D02*
X143416379Y-128488100D01*
X114674821Y-129508100D02*
X115000379Y-129508100D01*
X114674821Y-128488100D02*
X115000379Y-128488100D01*
X171506821Y-108712100D02*
X171832379Y-108712100D01*
X171506821Y-107692100D02*
X171832379Y-107692100D01*
X143090821Y-108712100D02*
X143416379Y-108712100D01*
X143090821Y-107692100D02*
X143416379Y-107692100D01*
X114674821Y-108712100D02*
X115000379Y-108712100D01*
X114674821Y-107692100D02*
X115000379Y-107692100D01*
X171506821Y-87916100D02*
X171832379Y-87916100D01*
X171506821Y-86896100D02*
X171832379Y-86896100D01*
X143090821Y-87916100D02*
X143416379Y-87916100D01*
X143090821Y-86896100D02*
X143416379Y-86896100D01*
X114674821Y-87916100D02*
X115000379Y-87916100D01*
X114674821Y-86896100D02*
X115000379Y-86896100D01*
X171506821Y-67120100D02*
X171832379Y-67120100D01*
X171506821Y-66100100D02*
X171832379Y-66100100D01*
X143090821Y-67120100D02*
X143416379Y-67120100D01*
X143090821Y-66100100D02*
X143416379Y-66100100D01*
X179179600Y-126914100D02*
X179179600Y-120794100D01*
X179179600Y-120794100D02*
X182879600Y-120794100D01*
X182879600Y-120794100D02*
X182879600Y-126914100D01*
X182879600Y-126914100D02*
X179179600Y-126914100D01*
X150763600Y-126914100D02*
X150763600Y-120794100D01*
X150763600Y-120794100D02*
X154463600Y-120794100D01*
X154463600Y-120794100D02*
X154463600Y-126914100D01*
X154463600Y-126914100D02*
X150763600Y-126914100D01*
X122347600Y-126914100D02*
X122347600Y-120794100D01*
X122347600Y-120794100D02*
X126047600Y-120794100D01*
X126047600Y-120794100D02*
X126047600Y-126914100D01*
X126047600Y-126914100D02*
X122347600Y-126914100D01*
X179179600Y-106118100D02*
X179179600Y-99998100D01*
X179179600Y-99998100D02*
X182879600Y-99998100D01*
X182879600Y-99998100D02*
X182879600Y-106118100D01*
X182879600Y-106118100D02*
X179179600Y-106118100D01*
X150763600Y-106118100D02*
X150763600Y-99998100D01*
X150763600Y-99998100D02*
X154463600Y-99998100D01*
X154463600Y-99998100D02*
X154463600Y-106118100D01*
X154463600Y-106118100D02*
X150763600Y-106118100D01*
X122347600Y-106118100D02*
X122347600Y-99998100D01*
X122347600Y-99998100D02*
X126047600Y-99998100D01*
X126047600Y-99998100D02*
X126047600Y-106118100D01*
X126047600Y-106118100D02*
X122347600Y-106118100D01*
X179179600Y-85322100D02*
X179179600Y-79202100D01*
X179179600Y-79202100D02*
X182879600Y-79202100D01*
X182879600Y-79202100D02*
X182879600Y-85322100D01*
X182879600Y-85322100D02*
X179179600Y-85322100D01*
X150763600Y-85322100D02*
X150763600Y-79202100D01*
X150763600Y-79202100D02*
X154463600Y-79202100D01*
X154463600Y-79202100D02*
X154463600Y-85322100D01*
X154463600Y-85322100D02*
X150763600Y-85322100D01*
X122347600Y-85322100D02*
X122347600Y-79202100D01*
X122347600Y-79202100D02*
X126047600Y-79202100D01*
X126047600Y-79202100D02*
X126047600Y-85322100D01*
X126047600Y-85322100D02*
X122347600Y-85322100D01*
X179179600Y-64526100D02*
X179179600Y-58406100D01*
X179179600Y-58406100D02*
X182879600Y-58406100D01*
X182879600Y-58406100D02*
X182879600Y-64526100D01*
X182879600Y-64526100D02*
X179179600Y-64526100D01*
X150763600Y-64526100D02*
X150763600Y-58406100D01*
X150763600Y-58406100D02*
X154463600Y-58406100D01*
X154463600Y-58406100D02*
X154463600Y-64526100D01*
X154463600Y-64526100D02*
X150763600Y-64526100D01*
X126047600Y-64526100D02*
X122347600Y-64526100D01*
X126047600Y-58406100D02*
X126047600Y-64526100D01*
X122347600Y-58406100D02*
X126047600Y-58406100D01*
X122347600Y-64526100D02*
X122347600Y-58406100D01*
X114674821Y-66100100D02*
X115000379Y-66100100D01*
X114674821Y-67120100D02*
X115000379Y-67120100D01*
X138236000Y-66608000D02*
X136906000Y-66608000D01*
X138236000Y-65278000D02*
X138236000Y-66608000D01*
X138236000Y-64008000D02*
X135576000Y-64008000D01*
X135576000Y-64008000D02*
X135576000Y-56328000D01*
X138236000Y-64008000D02*
X138236000Y-56328000D01*
X138236000Y-56328000D02*
X135576000Y-56328000D01*
X120160600Y-56602100D02*
X120160600Y-58887100D01*
X120160600Y-58887100D02*
X121630600Y-58887100D01*
X121630600Y-58887100D02*
X121630600Y-56602100D01*
D13*
X133489600Y-63691100D02*
X133489600Y-59241100D01*
X126589600Y-65216100D02*
X126589600Y-59241100D01*
D12*
X121982500Y-65813000D02*
X119697500Y-65813000D01*
X121982500Y-67283000D02*
X121982500Y-65813000D01*
X119697500Y-67283000D02*
X121982500Y-67283000D01*
X119503600Y-64876100D02*
X119503600Y-63616100D01*
X119503600Y-58056100D02*
X119503600Y-59316100D01*
X115743600Y-64876100D02*
X119503600Y-64876100D01*
X113493600Y-58056100D02*
X119503600Y-58056100D01*
D11*
X127929600Y-133252100D02*
G75*
G03X127929600Y-135252100I0J-1000000D01*
G01*
X123929600Y-135252100D02*
G75*
G03X123929600Y-133252100I0J1000000D01*
G01*
X156345600Y-133252100D02*
G75*
G03X156345600Y-135252100I0J-1000000D01*
G01*
X152345600Y-135252100D02*
G75*
G03X152345600Y-133252100I0J1000000D01*
G01*
X184761600Y-133252100D02*
G75*
G03X184761600Y-135252100I0J-1000000D01*
G01*
X180761600Y-135252100D02*
G75*
G03X180761600Y-133252100I0J1000000D01*
G01*
X140929600Y-104660100D02*
G75*
G03X138929600Y-104660100I-1000000J0D01*
G01*
X138929600Y-100660100D02*
G75*
G03X140929600Y-100660100I1000000J0D01*
G01*
X184761600Y-91660100D02*
G75*
G03X184761600Y-93660100I0J-1000000D01*
G01*
X180761600Y-93660100D02*
G75*
G03X180761600Y-91660100I0J1000000D01*
G01*
X184761600Y-70864100D02*
G75*
G03X184761600Y-72864100I0J-1000000D01*
G01*
X180761600Y-72864100D02*
G75*
G03X180761600Y-70864100I0J1000000D01*
G01*
X156345600Y-91660100D02*
G75*
G03X156345600Y-93660100I0J-1000000D01*
G01*
X152345600Y-93660100D02*
G75*
G03X152345600Y-91660100I0J1000000D01*
G01*
X127929600Y-91660100D02*
G75*
G03X127929600Y-93660100I0J-1000000D01*
G01*
X123929600Y-93660100D02*
G75*
G03X123929600Y-91660100I0J1000000D01*
G01*
X156345600Y-70864100D02*
G75*
G03X156345600Y-72864100I0J-1000000D01*
G01*
X152345600Y-72864100D02*
G75*
G03X152345600Y-70864100I0J1000000D01*
G01*
X169345600Y-125456100D02*
G75*
G03X167345600Y-125456100I-1000000J0D01*
G01*
X167345600Y-121456100D02*
G75*
G03X169345600Y-121456100I1000000J0D01*
G01*
X140929600Y-125456100D02*
G75*
G03X138929600Y-125456100I-1000000J0D01*
G01*
X138929600Y-121456100D02*
G75*
G03X140929600Y-121456100I1000000J0D01*
G01*
X169345600Y-104660100D02*
G75*
G03X167345600Y-104660100I-1000000J0D01*
G01*
X167345600Y-100660100D02*
G75*
G03X169345600Y-100660100I1000000J0D01*
G01*
X169345600Y-83864100D02*
G75*
G03X167345600Y-83864100I-1000000J0D01*
G01*
X167345600Y-79864100D02*
G75*
G03X169345600Y-79864100I1000000J0D01*
G01*
X140929600Y-83864100D02*
G75*
G03X138929600Y-83864100I-1000000J0D01*
G01*
X138929600Y-79864100D02*
G75*
G03X140929600Y-79864100I1000000J0D01*
G01*
X169345600Y-63068100D02*
G75*
G03X167345600Y-63068100I-1000000J0D01*
G01*
X167345600Y-59068100D02*
G75*
G03X169345600Y-59068100I1000000J0D01*
G01*
X180761600Y-52068100D02*
G75*
G03X180761600Y-50068100I0J1000000D01*
G01*
X184761600Y-50068100D02*
G75*
G03X184761600Y-52068100I0J-1000000D01*
G01*
X152345600Y-52068100D02*
G75*
G03X152345600Y-50068100I0J1000000D01*
G01*
X156345600Y-50068100D02*
G75*
G03X156345600Y-52068100I0J-1000000D01*
G01*
X138929600Y-59068100D02*
G75*
G03X140929600Y-59068100I1000000J0D01*
G01*
X140929600Y-63068100D02*
G75*
G03X138929600Y-63068100I-1000000J0D01*
G01*
X127929600Y-50068100D02*
G75*
G03X127929600Y-52068100I0J-1000000D01*
G01*
X123929600Y-52068100D02*
G75*
G03X123929600Y-50068100I0J1000000D01*
G01*
D13*
X191062533Y-119320285D02*
X191023828Y-119358990D01*
X190907714Y-119397695D01*
X190830304Y-119397695D01*
X190714190Y-119358990D01*
X190636780Y-119281580D01*
X190598076Y-119204171D01*
X190559371Y-119049352D01*
X190559371Y-118933238D01*
X190598076Y-118778419D01*
X190636780Y-118701009D01*
X190714190Y-118623600D01*
X190830304Y-118584895D01*
X190907714Y-118584895D01*
X191023828Y-118623600D01*
X191062533Y-118662304D01*
X191797923Y-118584895D02*
X191410876Y-118584895D01*
X191372171Y-118971942D01*
X191410876Y-118933238D01*
X191488285Y-118894533D01*
X191681809Y-118894533D01*
X191759219Y-118933238D01*
X191797923Y-118971942D01*
X191836628Y-119049352D01*
X191836628Y-119242876D01*
X191797923Y-119320285D01*
X191759219Y-119358990D01*
X191681809Y-119397695D01*
X191488285Y-119397695D01*
X191410876Y-119358990D01*
X191372171Y-119320285D01*
X162646533Y-119320285D02*
X162607828Y-119358990D01*
X162491714Y-119397695D01*
X162414304Y-119397695D01*
X162298190Y-119358990D01*
X162220780Y-119281580D01*
X162182076Y-119204171D01*
X162143371Y-119049352D01*
X162143371Y-118933238D01*
X162182076Y-118778419D01*
X162220780Y-118701009D01*
X162298190Y-118623600D01*
X162414304Y-118584895D01*
X162491714Y-118584895D01*
X162607828Y-118623600D01*
X162646533Y-118662304D01*
X163381923Y-118584895D02*
X162994876Y-118584895D01*
X162956171Y-118971942D01*
X162994876Y-118933238D01*
X163072285Y-118894533D01*
X163265809Y-118894533D01*
X163343219Y-118933238D01*
X163381923Y-118971942D01*
X163420628Y-119049352D01*
X163420628Y-119242876D01*
X163381923Y-119320285D01*
X163343219Y-119358990D01*
X163265809Y-119397695D01*
X163072285Y-119397695D01*
X162994876Y-119358990D01*
X162956171Y-119320285D01*
X134230533Y-119320285D02*
X134191828Y-119358990D01*
X134075714Y-119397695D01*
X133998304Y-119397695D01*
X133882190Y-119358990D01*
X133804780Y-119281580D01*
X133766076Y-119204171D01*
X133727371Y-119049352D01*
X133727371Y-118933238D01*
X133766076Y-118778419D01*
X133804780Y-118701009D01*
X133882190Y-118623600D01*
X133998304Y-118584895D01*
X134075714Y-118584895D01*
X134191828Y-118623600D01*
X134230533Y-118662304D01*
X134965923Y-118584895D02*
X134578876Y-118584895D01*
X134540171Y-118971942D01*
X134578876Y-118933238D01*
X134656285Y-118894533D01*
X134849809Y-118894533D01*
X134927219Y-118933238D01*
X134965923Y-118971942D01*
X135004628Y-119049352D01*
X135004628Y-119242876D01*
X134965923Y-119320285D01*
X134927219Y-119358990D01*
X134849809Y-119397695D01*
X134656285Y-119397695D01*
X134578876Y-119358990D01*
X134540171Y-119320285D01*
X191062533Y-98524285D02*
X191023828Y-98562990D01*
X190907714Y-98601695D01*
X190830304Y-98601695D01*
X190714190Y-98562990D01*
X190636780Y-98485580D01*
X190598076Y-98408171D01*
X190559371Y-98253352D01*
X190559371Y-98137238D01*
X190598076Y-97982419D01*
X190636780Y-97905009D01*
X190714190Y-97827600D01*
X190830304Y-97788895D01*
X190907714Y-97788895D01*
X191023828Y-97827600D01*
X191062533Y-97866304D01*
X191797923Y-97788895D02*
X191410876Y-97788895D01*
X191372171Y-98175942D01*
X191410876Y-98137238D01*
X191488285Y-98098533D01*
X191681809Y-98098533D01*
X191759219Y-98137238D01*
X191797923Y-98175942D01*
X191836628Y-98253352D01*
X191836628Y-98446876D01*
X191797923Y-98524285D01*
X191759219Y-98562990D01*
X191681809Y-98601695D01*
X191488285Y-98601695D01*
X191410876Y-98562990D01*
X191372171Y-98524285D01*
X162646533Y-98524285D02*
X162607828Y-98562990D01*
X162491714Y-98601695D01*
X162414304Y-98601695D01*
X162298190Y-98562990D01*
X162220780Y-98485580D01*
X162182076Y-98408171D01*
X162143371Y-98253352D01*
X162143371Y-98137238D01*
X162182076Y-97982419D01*
X162220780Y-97905009D01*
X162298190Y-97827600D01*
X162414304Y-97788895D01*
X162491714Y-97788895D01*
X162607828Y-97827600D01*
X162646533Y-97866304D01*
X163381923Y-97788895D02*
X162994876Y-97788895D01*
X162956171Y-98175942D01*
X162994876Y-98137238D01*
X163072285Y-98098533D01*
X163265809Y-98098533D01*
X163343219Y-98137238D01*
X163381923Y-98175942D01*
X163420628Y-98253352D01*
X163420628Y-98446876D01*
X163381923Y-98524285D01*
X163343219Y-98562990D01*
X163265809Y-98601695D01*
X163072285Y-98601695D01*
X162994876Y-98562990D01*
X162956171Y-98524285D01*
X134230533Y-98524285D02*
X134191828Y-98562990D01*
X134075714Y-98601695D01*
X133998304Y-98601695D01*
X133882190Y-98562990D01*
X133804780Y-98485580D01*
X133766076Y-98408171D01*
X133727371Y-98253352D01*
X133727371Y-98137238D01*
X133766076Y-97982419D01*
X133804780Y-97905009D01*
X133882190Y-97827600D01*
X133998304Y-97788895D01*
X134075714Y-97788895D01*
X134191828Y-97827600D01*
X134230533Y-97866304D01*
X134965923Y-97788895D02*
X134578876Y-97788895D01*
X134540171Y-98175942D01*
X134578876Y-98137238D01*
X134656285Y-98098533D01*
X134849809Y-98098533D01*
X134927219Y-98137238D01*
X134965923Y-98175942D01*
X135004628Y-98253352D01*
X135004628Y-98446876D01*
X134965923Y-98524285D01*
X134927219Y-98562990D01*
X134849809Y-98601695D01*
X134656285Y-98601695D01*
X134578876Y-98562990D01*
X134540171Y-98524285D01*
X191062533Y-77728285D02*
X191023828Y-77766990D01*
X190907714Y-77805695D01*
X190830304Y-77805695D01*
X190714190Y-77766990D01*
X190636780Y-77689580D01*
X190598076Y-77612171D01*
X190559371Y-77457352D01*
X190559371Y-77341238D01*
X190598076Y-77186419D01*
X190636780Y-77109009D01*
X190714190Y-77031600D01*
X190830304Y-76992895D01*
X190907714Y-76992895D01*
X191023828Y-77031600D01*
X191062533Y-77070304D01*
X191797923Y-76992895D02*
X191410876Y-76992895D01*
X191372171Y-77379942D01*
X191410876Y-77341238D01*
X191488285Y-77302533D01*
X191681809Y-77302533D01*
X191759219Y-77341238D01*
X191797923Y-77379942D01*
X191836628Y-77457352D01*
X191836628Y-77650876D01*
X191797923Y-77728285D01*
X191759219Y-77766990D01*
X191681809Y-77805695D01*
X191488285Y-77805695D01*
X191410876Y-77766990D01*
X191372171Y-77728285D01*
X162646533Y-77728285D02*
X162607828Y-77766990D01*
X162491714Y-77805695D01*
X162414304Y-77805695D01*
X162298190Y-77766990D01*
X162220780Y-77689580D01*
X162182076Y-77612171D01*
X162143371Y-77457352D01*
X162143371Y-77341238D01*
X162182076Y-77186419D01*
X162220780Y-77109009D01*
X162298190Y-77031600D01*
X162414304Y-76992895D01*
X162491714Y-76992895D01*
X162607828Y-77031600D01*
X162646533Y-77070304D01*
X163381923Y-76992895D02*
X162994876Y-76992895D01*
X162956171Y-77379942D01*
X162994876Y-77341238D01*
X163072285Y-77302533D01*
X163265809Y-77302533D01*
X163343219Y-77341238D01*
X163381923Y-77379942D01*
X163420628Y-77457352D01*
X163420628Y-77650876D01*
X163381923Y-77728285D01*
X163343219Y-77766990D01*
X163265809Y-77805695D01*
X163072285Y-77805695D01*
X162994876Y-77766990D01*
X162956171Y-77728285D01*
X134230533Y-77728285D02*
X134191828Y-77766990D01*
X134075714Y-77805695D01*
X133998304Y-77805695D01*
X133882190Y-77766990D01*
X133804780Y-77689580D01*
X133766076Y-77612171D01*
X133727371Y-77457352D01*
X133727371Y-77341238D01*
X133766076Y-77186419D01*
X133804780Y-77109009D01*
X133882190Y-77031600D01*
X133998304Y-76992895D01*
X134075714Y-76992895D01*
X134191828Y-77031600D01*
X134230533Y-77070304D01*
X134965923Y-76992895D02*
X134578876Y-76992895D01*
X134540171Y-77379942D01*
X134578876Y-77341238D01*
X134656285Y-77302533D01*
X134849809Y-77302533D01*
X134927219Y-77341238D01*
X134965923Y-77379942D01*
X135004628Y-77457352D01*
X135004628Y-77650876D01*
X134965923Y-77728285D01*
X134927219Y-77766990D01*
X134849809Y-77805695D01*
X134656285Y-77805695D01*
X134578876Y-77766990D01*
X134540171Y-77728285D01*
X191062533Y-56932285D02*
X191023828Y-56970990D01*
X190907714Y-57009695D01*
X190830304Y-57009695D01*
X190714190Y-56970990D01*
X190636780Y-56893580D01*
X190598076Y-56816171D01*
X190559371Y-56661352D01*
X190559371Y-56545238D01*
X190598076Y-56390419D01*
X190636780Y-56313009D01*
X190714190Y-56235600D01*
X190830304Y-56196895D01*
X190907714Y-56196895D01*
X191023828Y-56235600D01*
X191062533Y-56274304D01*
X191797923Y-56196895D02*
X191410876Y-56196895D01*
X191372171Y-56583942D01*
X191410876Y-56545238D01*
X191488285Y-56506533D01*
X191681809Y-56506533D01*
X191759219Y-56545238D01*
X191797923Y-56583942D01*
X191836628Y-56661352D01*
X191836628Y-56854876D01*
X191797923Y-56932285D01*
X191759219Y-56970990D01*
X191681809Y-57009695D01*
X191488285Y-57009695D01*
X191410876Y-56970990D01*
X191372171Y-56932285D01*
X162646533Y-56932285D02*
X162607828Y-56970990D01*
X162491714Y-57009695D01*
X162414304Y-57009695D01*
X162298190Y-56970990D01*
X162220780Y-56893580D01*
X162182076Y-56816171D01*
X162143371Y-56661352D01*
X162143371Y-56545238D01*
X162182076Y-56390419D01*
X162220780Y-56313009D01*
X162298190Y-56235600D01*
X162414304Y-56196895D01*
X162491714Y-56196895D01*
X162607828Y-56235600D01*
X162646533Y-56274304D01*
X163381923Y-56196895D02*
X162994876Y-56196895D01*
X162956171Y-56583942D01*
X162994876Y-56545238D01*
X163072285Y-56506533D01*
X163265809Y-56506533D01*
X163343219Y-56545238D01*
X163381923Y-56583942D01*
X163420628Y-56661352D01*
X163420628Y-56854876D01*
X163381923Y-56932285D01*
X163343219Y-56970990D01*
X163265809Y-57009695D01*
X163072285Y-57009695D01*
X162994876Y-56970990D01*
X162956171Y-56932285D01*
X173806323Y-122648895D02*
X173806323Y-123306876D01*
X173845028Y-123384285D01*
X173883733Y-123422990D01*
X173961142Y-123461695D01*
X174115961Y-123461695D01*
X174193371Y-123422990D01*
X174232076Y-123384285D01*
X174270780Y-123306876D01*
X174270780Y-122648895D01*
X174619123Y-122726304D02*
X174657828Y-122687600D01*
X174735238Y-122648895D01*
X174928761Y-122648895D01*
X175006171Y-122687600D01*
X175044876Y-122726304D01*
X175083580Y-122803714D01*
X175083580Y-122881123D01*
X175044876Y-122997238D01*
X174580419Y-123461695D01*
X175083580Y-123461695D01*
X145390323Y-122648895D02*
X145390323Y-123306876D01*
X145429028Y-123384285D01*
X145467733Y-123422990D01*
X145545142Y-123461695D01*
X145699961Y-123461695D01*
X145777371Y-123422990D01*
X145816076Y-123384285D01*
X145854780Y-123306876D01*
X145854780Y-122648895D01*
X146203123Y-122726304D02*
X146241828Y-122687600D01*
X146319238Y-122648895D01*
X146512761Y-122648895D01*
X146590171Y-122687600D01*
X146628876Y-122726304D01*
X146667580Y-122803714D01*
X146667580Y-122881123D01*
X146628876Y-122997238D01*
X146164419Y-123461695D01*
X146667580Y-123461695D01*
X116974323Y-122648895D02*
X116974323Y-123306876D01*
X117013028Y-123384285D01*
X117051733Y-123422990D01*
X117129142Y-123461695D01*
X117283961Y-123461695D01*
X117361371Y-123422990D01*
X117400076Y-123384285D01*
X117438780Y-123306876D01*
X117438780Y-122648895D01*
X117787123Y-122726304D02*
X117825828Y-122687600D01*
X117903238Y-122648895D01*
X118096761Y-122648895D01*
X118174171Y-122687600D01*
X118212876Y-122726304D01*
X118251580Y-122803714D01*
X118251580Y-122881123D01*
X118212876Y-122997238D01*
X117748419Y-123461695D01*
X118251580Y-123461695D01*
X173806323Y-101852895D02*
X173806323Y-102510876D01*
X173845028Y-102588285D01*
X173883733Y-102626990D01*
X173961142Y-102665695D01*
X174115961Y-102665695D01*
X174193371Y-102626990D01*
X174232076Y-102588285D01*
X174270780Y-102510876D01*
X174270780Y-101852895D01*
X174619123Y-101930304D02*
X174657828Y-101891600D01*
X174735238Y-101852895D01*
X174928761Y-101852895D01*
X175006171Y-101891600D01*
X175044876Y-101930304D01*
X175083580Y-102007714D01*
X175083580Y-102085123D01*
X175044876Y-102201238D01*
X174580419Y-102665695D01*
X175083580Y-102665695D01*
X145390323Y-101852895D02*
X145390323Y-102510876D01*
X145429028Y-102588285D01*
X145467733Y-102626990D01*
X145545142Y-102665695D01*
X145699961Y-102665695D01*
X145777371Y-102626990D01*
X145816076Y-102588285D01*
X145854780Y-102510876D01*
X145854780Y-101852895D01*
X146203123Y-101930304D02*
X146241828Y-101891600D01*
X146319238Y-101852895D01*
X146512761Y-101852895D01*
X146590171Y-101891600D01*
X146628876Y-101930304D01*
X146667580Y-102007714D01*
X146667580Y-102085123D01*
X146628876Y-102201238D01*
X146164419Y-102665695D01*
X146667580Y-102665695D01*
X116974323Y-101852895D02*
X116974323Y-102510876D01*
X117013028Y-102588285D01*
X117051733Y-102626990D01*
X117129142Y-102665695D01*
X117283961Y-102665695D01*
X117361371Y-102626990D01*
X117400076Y-102588285D01*
X117438780Y-102510876D01*
X117438780Y-101852895D01*
X117787123Y-101930304D02*
X117825828Y-101891600D01*
X117903238Y-101852895D01*
X118096761Y-101852895D01*
X118174171Y-101891600D01*
X118212876Y-101930304D01*
X118251580Y-102007714D01*
X118251580Y-102085123D01*
X118212876Y-102201238D01*
X117748419Y-102665695D01*
X118251580Y-102665695D01*
X173806323Y-81056895D02*
X173806323Y-81714876D01*
X173845028Y-81792285D01*
X173883733Y-81830990D01*
X173961142Y-81869695D01*
X174115961Y-81869695D01*
X174193371Y-81830990D01*
X174232076Y-81792285D01*
X174270780Y-81714876D01*
X174270780Y-81056895D01*
X174619123Y-81134304D02*
X174657828Y-81095600D01*
X174735238Y-81056895D01*
X174928761Y-81056895D01*
X175006171Y-81095600D01*
X175044876Y-81134304D01*
X175083580Y-81211714D01*
X175083580Y-81289123D01*
X175044876Y-81405238D01*
X174580419Y-81869695D01*
X175083580Y-81869695D01*
X145390323Y-81056895D02*
X145390323Y-81714876D01*
X145429028Y-81792285D01*
X145467733Y-81830990D01*
X145545142Y-81869695D01*
X145699961Y-81869695D01*
X145777371Y-81830990D01*
X145816076Y-81792285D01*
X145854780Y-81714876D01*
X145854780Y-81056895D01*
X146203123Y-81134304D02*
X146241828Y-81095600D01*
X146319238Y-81056895D01*
X146512761Y-81056895D01*
X146590171Y-81095600D01*
X146628876Y-81134304D01*
X146667580Y-81211714D01*
X146667580Y-81289123D01*
X146628876Y-81405238D01*
X146164419Y-81869695D01*
X146667580Y-81869695D01*
X116974323Y-81056895D02*
X116974323Y-81714876D01*
X117013028Y-81792285D01*
X117051733Y-81830990D01*
X117129142Y-81869695D01*
X117283961Y-81869695D01*
X117361371Y-81830990D01*
X117400076Y-81792285D01*
X117438780Y-81714876D01*
X117438780Y-81056895D01*
X117787123Y-81134304D02*
X117825828Y-81095600D01*
X117903238Y-81056895D01*
X118096761Y-81056895D01*
X118174171Y-81095600D01*
X118212876Y-81134304D01*
X118251580Y-81211714D01*
X118251580Y-81289123D01*
X118212876Y-81405238D01*
X117748419Y-81869695D01*
X118251580Y-81869695D01*
X173806323Y-60260895D02*
X173806323Y-60918876D01*
X173845028Y-60996285D01*
X173883733Y-61034990D01*
X173961142Y-61073695D01*
X174115961Y-61073695D01*
X174193371Y-61034990D01*
X174232076Y-60996285D01*
X174270780Y-60918876D01*
X174270780Y-60260895D01*
X174619123Y-60338304D02*
X174657828Y-60299600D01*
X174735238Y-60260895D01*
X174928761Y-60260895D01*
X175006171Y-60299600D01*
X175044876Y-60338304D01*
X175083580Y-60415714D01*
X175083580Y-60493123D01*
X175044876Y-60609238D01*
X174580419Y-61073695D01*
X175083580Y-61073695D01*
X145390323Y-60260895D02*
X145390323Y-60918876D01*
X145429028Y-60996285D01*
X145467733Y-61034990D01*
X145545142Y-61073695D01*
X145699961Y-61073695D01*
X145777371Y-61034990D01*
X145816076Y-60996285D01*
X145854780Y-60918876D01*
X145854780Y-60260895D01*
X146203123Y-60338304D02*
X146241828Y-60299600D01*
X146319238Y-60260895D01*
X146512761Y-60260895D01*
X146590171Y-60299600D01*
X146628876Y-60338304D01*
X146667580Y-60415714D01*
X146667580Y-60493123D01*
X146628876Y-60609238D01*
X146164419Y-61073695D01*
X146667580Y-61073695D01*
X179277976Y-129813595D02*
X179277976Y-129000795D01*
X179471500Y-129000795D01*
X179587614Y-129039500D01*
X179665023Y-129116909D01*
X179703728Y-129194319D01*
X179742433Y-129349138D01*
X179742433Y-129465252D01*
X179703728Y-129620071D01*
X179665023Y-129697480D01*
X179587614Y-129774890D01*
X179471500Y-129813595D01*
X179277976Y-129813595D01*
X180052071Y-129078204D02*
X180090776Y-129039500D01*
X180168185Y-129000795D01*
X180361709Y-129000795D01*
X180439119Y-129039500D01*
X180477823Y-129078204D01*
X180516528Y-129155614D01*
X180516528Y-129233023D01*
X180477823Y-129349138D01*
X180013366Y-129813595D01*
X180516528Y-129813595D01*
X150861976Y-129813595D02*
X150861976Y-129000795D01*
X151055500Y-129000795D01*
X151171614Y-129039500D01*
X151249023Y-129116909D01*
X151287728Y-129194319D01*
X151326433Y-129349138D01*
X151326433Y-129465252D01*
X151287728Y-129620071D01*
X151249023Y-129697480D01*
X151171614Y-129774890D01*
X151055500Y-129813595D01*
X150861976Y-129813595D01*
X151636071Y-129078204D02*
X151674776Y-129039500D01*
X151752185Y-129000795D01*
X151945709Y-129000795D01*
X152023119Y-129039500D01*
X152061823Y-129078204D01*
X152100528Y-129155614D01*
X152100528Y-129233023D01*
X152061823Y-129349138D01*
X151597366Y-129813595D01*
X152100528Y-129813595D01*
X122445976Y-129813595D02*
X122445976Y-129000795D01*
X122639500Y-129000795D01*
X122755614Y-129039500D01*
X122833023Y-129116909D01*
X122871728Y-129194319D01*
X122910433Y-129349138D01*
X122910433Y-129465252D01*
X122871728Y-129620071D01*
X122833023Y-129697480D01*
X122755614Y-129774890D01*
X122639500Y-129813595D01*
X122445976Y-129813595D01*
X123220071Y-129078204D02*
X123258776Y-129039500D01*
X123336185Y-129000795D01*
X123529709Y-129000795D01*
X123607119Y-129039500D01*
X123645823Y-129078204D01*
X123684528Y-129155614D01*
X123684528Y-129233023D01*
X123645823Y-129349138D01*
X123181366Y-129813595D01*
X123684528Y-129813595D01*
X179277976Y-109017595D02*
X179277976Y-108204795D01*
X179471500Y-108204795D01*
X179587614Y-108243500D01*
X179665023Y-108320909D01*
X179703728Y-108398319D01*
X179742433Y-108553138D01*
X179742433Y-108669252D01*
X179703728Y-108824071D01*
X179665023Y-108901480D01*
X179587614Y-108978890D01*
X179471500Y-109017595D01*
X179277976Y-109017595D01*
X180052071Y-108282204D02*
X180090776Y-108243500D01*
X180168185Y-108204795D01*
X180361709Y-108204795D01*
X180439119Y-108243500D01*
X180477823Y-108282204D01*
X180516528Y-108359614D01*
X180516528Y-108437023D01*
X180477823Y-108553138D01*
X180013366Y-109017595D01*
X180516528Y-109017595D01*
X150861976Y-109017595D02*
X150861976Y-108204795D01*
X151055500Y-108204795D01*
X151171614Y-108243500D01*
X151249023Y-108320909D01*
X151287728Y-108398319D01*
X151326433Y-108553138D01*
X151326433Y-108669252D01*
X151287728Y-108824071D01*
X151249023Y-108901480D01*
X151171614Y-108978890D01*
X151055500Y-109017595D01*
X150861976Y-109017595D01*
X151636071Y-108282204D02*
X151674776Y-108243500D01*
X151752185Y-108204795D01*
X151945709Y-108204795D01*
X152023119Y-108243500D01*
X152061823Y-108282204D01*
X152100528Y-108359614D01*
X152100528Y-108437023D01*
X152061823Y-108553138D01*
X151597366Y-109017595D01*
X152100528Y-109017595D01*
X122445976Y-109017595D02*
X122445976Y-108204795D01*
X122639500Y-108204795D01*
X122755614Y-108243500D01*
X122833023Y-108320909D01*
X122871728Y-108398319D01*
X122910433Y-108553138D01*
X122910433Y-108669252D01*
X122871728Y-108824071D01*
X122833023Y-108901480D01*
X122755614Y-108978890D01*
X122639500Y-109017595D01*
X122445976Y-109017595D01*
X123220071Y-108282204D02*
X123258776Y-108243500D01*
X123336185Y-108204795D01*
X123529709Y-108204795D01*
X123607119Y-108243500D01*
X123645823Y-108282204D01*
X123684528Y-108359614D01*
X123684528Y-108437023D01*
X123645823Y-108553138D01*
X123181366Y-109017595D01*
X123684528Y-109017595D01*
X179277976Y-88221595D02*
X179277976Y-87408795D01*
X179471500Y-87408795D01*
X179587614Y-87447500D01*
X179665023Y-87524909D01*
X179703728Y-87602319D01*
X179742433Y-87757138D01*
X179742433Y-87873252D01*
X179703728Y-88028071D01*
X179665023Y-88105480D01*
X179587614Y-88182890D01*
X179471500Y-88221595D01*
X179277976Y-88221595D01*
X180052071Y-87486204D02*
X180090776Y-87447500D01*
X180168185Y-87408795D01*
X180361709Y-87408795D01*
X180439119Y-87447500D01*
X180477823Y-87486204D01*
X180516528Y-87563614D01*
X180516528Y-87641023D01*
X180477823Y-87757138D01*
X180013366Y-88221595D01*
X180516528Y-88221595D01*
X150861976Y-88221595D02*
X150861976Y-87408795D01*
X151055500Y-87408795D01*
X151171614Y-87447500D01*
X151249023Y-87524909D01*
X151287728Y-87602319D01*
X151326433Y-87757138D01*
X151326433Y-87873252D01*
X151287728Y-88028071D01*
X151249023Y-88105480D01*
X151171614Y-88182890D01*
X151055500Y-88221595D01*
X150861976Y-88221595D01*
X151636071Y-87486204D02*
X151674776Y-87447500D01*
X151752185Y-87408795D01*
X151945709Y-87408795D01*
X152023119Y-87447500D01*
X152061823Y-87486204D01*
X152100528Y-87563614D01*
X152100528Y-87641023D01*
X152061823Y-87757138D01*
X151597366Y-88221595D01*
X152100528Y-88221595D01*
X122445976Y-88221595D02*
X122445976Y-87408795D01*
X122639500Y-87408795D01*
X122755614Y-87447500D01*
X122833023Y-87524909D01*
X122871728Y-87602319D01*
X122910433Y-87757138D01*
X122910433Y-87873252D01*
X122871728Y-88028071D01*
X122833023Y-88105480D01*
X122755614Y-88182890D01*
X122639500Y-88221595D01*
X122445976Y-88221595D01*
X123220071Y-87486204D02*
X123258776Y-87447500D01*
X123336185Y-87408795D01*
X123529709Y-87408795D01*
X123607119Y-87447500D01*
X123645823Y-87486204D01*
X123684528Y-87563614D01*
X123684528Y-87641023D01*
X123645823Y-87757138D01*
X123181366Y-88221595D01*
X123684528Y-88221595D01*
X179277976Y-67425595D02*
X179277976Y-66612795D01*
X179471500Y-66612795D01*
X179587614Y-66651500D01*
X179665023Y-66728909D01*
X179703728Y-66806319D01*
X179742433Y-66961138D01*
X179742433Y-67077252D01*
X179703728Y-67232071D01*
X179665023Y-67309480D01*
X179587614Y-67386890D01*
X179471500Y-67425595D01*
X179277976Y-67425595D01*
X180052071Y-66690204D02*
X180090776Y-66651500D01*
X180168185Y-66612795D01*
X180361709Y-66612795D01*
X180439119Y-66651500D01*
X180477823Y-66690204D01*
X180516528Y-66767614D01*
X180516528Y-66845023D01*
X180477823Y-66961138D01*
X180013366Y-67425595D01*
X180516528Y-67425595D01*
X150861976Y-67425595D02*
X150861976Y-66612795D01*
X151055500Y-66612795D01*
X151171614Y-66651500D01*
X151249023Y-66728909D01*
X151287728Y-66806319D01*
X151326433Y-66961138D01*
X151326433Y-67077252D01*
X151287728Y-67232071D01*
X151249023Y-67309480D01*
X151171614Y-67386890D01*
X151055500Y-67425595D01*
X150861976Y-67425595D01*
X151636071Y-66690204D02*
X151674776Y-66651500D01*
X151752185Y-66612795D01*
X151945709Y-66612795D01*
X152023119Y-66651500D01*
X152061823Y-66690204D01*
X152100528Y-66767614D01*
X152100528Y-66845023D01*
X152061823Y-66961138D01*
X151597366Y-67425595D01*
X152100528Y-67425595D01*
X186236533Y-129734285D02*
X186197828Y-129772990D01*
X186081714Y-129811695D01*
X186004304Y-129811695D01*
X185888190Y-129772990D01*
X185810780Y-129695580D01*
X185772076Y-129618171D01*
X185733371Y-129463352D01*
X185733371Y-129347238D01*
X185772076Y-129192419D01*
X185810780Y-129115009D01*
X185888190Y-129037600D01*
X186004304Y-128998895D01*
X186081714Y-128998895D01*
X186197828Y-129037600D01*
X186236533Y-129076304D01*
X186507466Y-128998895D02*
X187010628Y-128998895D01*
X186739695Y-129308533D01*
X186855809Y-129308533D01*
X186933219Y-129347238D01*
X186971923Y-129385942D01*
X187010628Y-129463352D01*
X187010628Y-129656876D01*
X186971923Y-129734285D01*
X186933219Y-129772990D01*
X186855809Y-129811695D01*
X186623580Y-129811695D01*
X186546171Y-129772990D01*
X186507466Y-129734285D01*
X157820533Y-129734285D02*
X157781828Y-129772990D01*
X157665714Y-129811695D01*
X157588304Y-129811695D01*
X157472190Y-129772990D01*
X157394780Y-129695580D01*
X157356076Y-129618171D01*
X157317371Y-129463352D01*
X157317371Y-129347238D01*
X157356076Y-129192419D01*
X157394780Y-129115009D01*
X157472190Y-129037600D01*
X157588304Y-128998895D01*
X157665714Y-128998895D01*
X157781828Y-129037600D01*
X157820533Y-129076304D01*
X158091466Y-128998895D02*
X158594628Y-128998895D01*
X158323695Y-129308533D01*
X158439809Y-129308533D01*
X158517219Y-129347238D01*
X158555923Y-129385942D01*
X158594628Y-129463352D01*
X158594628Y-129656876D01*
X158555923Y-129734285D01*
X158517219Y-129772990D01*
X158439809Y-129811695D01*
X158207580Y-129811695D01*
X158130171Y-129772990D01*
X158091466Y-129734285D01*
X129404533Y-129734285D02*
X129365828Y-129772990D01*
X129249714Y-129811695D01*
X129172304Y-129811695D01*
X129056190Y-129772990D01*
X128978780Y-129695580D01*
X128940076Y-129618171D01*
X128901371Y-129463352D01*
X128901371Y-129347238D01*
X128940076Y-129192419D01*
X128978780Y-129115009D01*
X129056190Y-129037600D01*
X129172304Y-128998895D01*
X129249714Y-128998895D01*
X129365828Y-129037600D01*
X129404533Y-129076304D01*
X129675466Y-128998895D02*
X130178628Y-128998895D01*
X129907695Y-129308533D01*
X130023809Y-129308533D01*
X130101219Y-129347238D01*
X130139923Y-129385942D01*
X130178628Y-129463352D01*
X130178628Y-129656876D01*
X130139923Y-129734285D01*
X130101219Y-129772990D01*
X130023809Y-129811695D01*
X129791580Y-129811695D01*
X129714171Y-129772990D01*
X129675466Y-129734285D01*
X186236533Y-108938285D02*
X186197828Y-108976990D01*
X186081714Y-109015695D01*
X186004304Y-109015695D01*
X185888190Y-108976990D01*
X185810780Y-108899580D01*
X185772076Y-108822171D01*
X185733371Y-108667352D01*
X185733371Y-108551238D01*
X185772076Y-108396419D01*
X185810780Y-108319009D01*
X185888190Y-108241600D01*
X186004304Y-108202895D01*
X186081714Y-108202895D01*
X186197828Y-108241600D01*
X186236533Y-108280304D01*
X186507466Y-108202895D02*
X187010628Y-108202895D01*
X186739695Y-108512533D01*
X186855809Y-108512533D01*
X186933219Y-108551238D01*
X186971923Y-108589942D01*
X187010628Y-108667352D01*
X187010628Y-108860876D01*
X186971923Y-108938285D01*
X186933219Y-108976990D01*
X186855809Y-109015695D01*
X186623580Y-109015695D01*
X186546171Y-108976990D01*
X186507466Y-108938285D01*
X157820533Y-108938285D02*
X157781828Y-108976990D01*
X157665714Y-109015695D01*
X157588304Y-109015695D01*
X157472190Y-108976990D01*
X157394780Y-108899580D01*
X157356076Y-108822171D01*
X157317371Y-108667352D01*
X157317371Y-108551238D01*
X157356076Y-108396419D01*
X157394780Y-108319009D01*
X157472190Y-108241600D01*
X157588304Y-108202895D01*
X157665714Y-108202895D01*
X157781828Y-108241600D01*
X157820533Y-108280304D01*
X158091466Y-108202895D02*
X158594628Y-108202895D01*
X158323695Y-108512533D01*
X158439809Y-108512533D01*
X158517219Y-108551238D01*
X158555923Y-108589942D01*
X158594628Y-108667352D01*
X158594628Y-108860876D01*
X158555923Y-108938285D01*
X158517219Y-108976990D01*
X158439809Y-109015695D01*
X158207580Y-109015695D01*
X158130171Y-108976990D01*
X158091466Y-108938285D01*
X129404533Y-108938285D02*
X129365828Y-108976990D01*
X129249714Y-109015695D01*
X129172304Y-109015695D01*
X129056190Y-108976990D01*
X128978780Y-108899580D01*
X128940076Y-108822171D01*
X128901371Y-108667352D01*
X128901371Y-108551238D01*
X128940076Y-108396419D01*
X128978780Y-108319009D01*
X129056190Y-108241600D01*
X129172304Y-108202895D01*
X129249714Y-108202895D01*
X129365828Y-108241600D01*
X129404533Y-108280304D01*
X129675466Y-108202895D02*
X130178628Y-108202895D01*
X129907695Y-108512533D01*
X130023809Y-108512533D01*
X130101219Y-108551238D01*
X130139923Y-108589942D01*
X130178628Y-108667352D01*
X130178628Y-108860876D01*
X130139923Y-108938285D01*
X130101219Y-108976990D01*
X130023809Y-109015695D01*
X129791580Y-109015695D01*
X129714171Y-108976990D01*
X129675466Y-108938285D01*
X186236533Y-88142285D02*
X186197828Y-88180990D01*
X186081714Y-88219695D01*
X186004304Y-88219695D01*
X185888190Y-88180990D01*
X185810780Y-88103580D01*
X185772076Y-88026171D01*
X185733371Y-87871352D01*
X185733371Y-87755238D01*
X185772076Y-87600419D01*
X185810780Y-87523009D01*
X185888190Y-87445600D01*
X186004304Y-87406895D01*
X186081714Y-87406895D01*
X186197828Y-87445600D01*
X186236533Y-87484304D01*
X186507466Y-87406895D02*
X187010628Y-87406895D01*
X186739695Y-87716533D01*
X186855809Y-87716533D01*
X186933219Y-87755238D01*
X186971923Y-87793942D01*
X187010628Y-87871352D01*
X187010628Y-88064876D01*
X186971923Y-88142285D01*
X186933219Y-88180990D01*
X186855809Y-88219695D01*
X186623580Y-88219695D01*
X186546171Y-88180990D01*
X186507466Y-88142285D01*
X157820533Y-88142285D02*
X157781828Y-88180990D01*
X157665714Y-88219695D01*
X157588304Y-88219695D01*
X157472190Y-88180990D01*
X157394780Y-88103580D01*
X157356076Y-88026171D01*
X157317371Y-87871352D01*
X157317371Y-87755238D01*
X157356076Y-87600419D01*
X157394780Y-87523009D01*
X157472190Y-87445600D01*
X157588304Y-87406895D01*
X157665714Y-87406895D01*
X157781828Y-87445600D01*
X157820533Y-87484304D01*
X158091466Y-87406895D02*
X158594628Y-87406895D01*
X158323695Y-87716533D01*
X158439809Y-87716533D01*
X158517219Y-87755238D01*
X158555923Y-87793942D01*
X158594628Y-87871352D01*
X158594628Y-88064876D01*
X158555923Y-88142285D01*
X158517219Y-88180990D01*
X158439809Y-88219695D01*
X158207580Y-88219695D01*
X158130171Y-88180990D01*
X158091466Y-88142285D01*
X129404533Y-88142285D02*
X129365828Y-88180990D01*
X129249714Y-88219695D01*
X129172304Y-88219695D01*
X129056190Y-88180990D01*
X128978780Y-88103580D01*
X128940076Y-88026171D01*
X128901371Y-87871352D01*
X128901371Y-87755238D01*
X128940076Y-87600419D01*
X128978780Y-87523009D01*
X129056190Y-87445600D01*
X129172304Y-87406895D01*
X129249714Y-87406895D01*
X129365828Y-87445600D01*
X129404533Y-87484304D01*
X129675466Y-87406895D02*
X130178628Y-87406895D01*
X129907695Y-87716533D01*
X130023809Y-87716533D01*
X130101219Y-87755238D01*
X130139923Y-87793942D01*
X130178628Y-87871352D01*
X130178628Y-88064876D01*
X130139923Y-88142285D01*
X130101219Y-88180990D01*
X130023809Y-88219695D01*
X129791580Y-88219695D01*
X129714171Y-88180990D01*
X129675466Y-88142285D01*
X186236533Y-67346285D02*
X186197828Y-67384990D01*
X186081714Y-67423695D01*
X186004304Y-67423695D01*
X185888190Y-67384990D01*
X185810780Y-67307580D01*
X185772076Y-67230171D01*
X185733371Y-67075352D01*
X185733371Y-66959238D01*
X185772076Y-66804419D01*
X185810780Y-66727009D01*
X185888190Y-66649600D01*
X186004304Y-66610895D01*
X186081714Y-66610895D01*
X186197828Y-66649600D01*
X186236533Y-66688304D01*
X186507466Y-66610895D02*
X187010628Y-66610895D01*
X186739695Y-66920533D01*
X186855809Y-66920533D01*
X186933219Y-66959238D01*
X186971923Y-66997942D01*
X187010628Y-67075352D01*
X187010628Y-67268876D01*
X186971923Y-67346285D01*
X186933219Y-67384990D01*
X186855809Y-67423695D01*
X186623580Y-67423695D01*
X186546171Y-67384990D01*
X186507466Y-67346285D01*
X157820533Y-67346285D02*
X157781828Y-67384990D01*
X157665714Y-67423695D01*
X157588304Y-67423695D01*
X157472190Y-67384990D01*
X157394780Y-67307580D01*
X157356076Y-67230171D01*
X157317371Y-67075352D01*
X157317371Y-66959238D01*
X157356076Y-66804419D01*
X157394780Y-66727009D01*
X157472190Y-66649600D01*
X157588304Y-66610895D01*
X157665714Y-66610895D01*
X157781828Y-66649600D01*
X157820533Y-66688304D01*
X158091466Y-66610895D02*
X158594628Y-66610895D01*
X158323695Y-66920533D01*
X158439809Y-66920533D01*
X158517219Y-66959238D01*
X158555923Y-66997942D01*
X158594628Y-67075352D01*
X158594628Y-67268876D01*
X158555923Y-67346285D01*
X158517219Y-67384990D01*
X158439809Y-67423695D01*
X158207580Y-67423695D01*
X158130171Y-67384990D01*
X158091466Y-67346285D01*
X191062533Y-120590285D02*
X191023828Y-120628990D01*
X190907714Y-120667695D01*
X190830304Y-120667695D01*
X190714190Y-120628990D01*
X190636780Y-120551580D01*
X190598076Y-120474171D01*
X190559371Y-120319352D01*
X190559371Y-120203238D01*
X190598076Y-120048419D01*
X190636780Y-119971009D01*
X190714190Y-119893600D01*
X190830304Y-119854895D01*
X190907714Y-119854895D01*
X191023828Y-119893600D01*
X191062533Y-119932304D01*
X191759219Y-120125828D02*
X191759219Y-120667695D01*
X191565695Y-119816190D02*
X191372171Y-120396761D01*
X191875333Y-120396761D01*
X162646533Y-120590285D02*
X162607828Y-120628990D01*
X162491714Y-120667695D01*
X162414304Y-120667695D01*
X162298190Y-120628990D01*
X162220780Y-120551580D01*
X162182076Y-120474171D01*
X162143371Y-120319352D01*
X162143371Y-120203238D01*
X162182076Y-120048419D01*
X162220780Y-119971009D01*
X162298190Y-119893600D01*
X162414304Y-119854895D01*
X162491714Y-119854895D01*
X162607828Y-119893600D01*
X162646533Y-119932304D01*
X163343219Y-120125828D02*
X163343219Y-120667695D01*
X163149695Y-119816190D02*
X162956171Y-120396761D01*
X163459333Y-120396761D01*
X134230533Y-120590285D02*
X134191828Y-120628990D01*
X134075714Y-120667695D01*
X133998304Y-120667695D01*
X133882190Y-120628990D01*
X133804780Y-120551580D01*
X133766076Y-120474171D01*
X133727371Y-120319352D01*
X133727371Y-120203238D01*
X133766076Y-120048419D01*
X133804780Y-119971009D01*
X133882190Y-119893600D01*
X133998304Y-119854895D01*
X134075714Y-119854895D01*
X134191828Y-119893600D01*
X134230533Y-119932304D01*
X134927219Y-120125828D02*
X134927219Y-120667695D01*
X134733695Y-119816190D02*
X134540171Y-120396761D01*
X135043333Y-120396761D01*
X191062533Y-99794285D02*
X191023828Y-99832990D01*
X190907714Y-99871695D01*
X190830304Y-99871695D01*
X190714190Y-99832990D01*
X190636780Y-99755580D01*
X190598076Y-99678171D01*
X190559371Y-99523352D01*
X190559371Y-99407238D01*
X190598076Y-99252419D01*
X190636780Y-99175009D01*
X190714190Y-99097600D01*
X190830304Y-99058895D01*
X190907714Y-99058895D01*
X191023828Y-99097600D01*
X191062533Y-99136304D01*
X191759219Y-99329828D02*
X191759219Y-99871695D01*
X191565695Y-99020190D02*
X191372171Y-99600761D01*
X191875333Y-99600761D01*
X162646533Y-99794285D02*
X162607828Y-99832990D01*
X162491714Y-99871695D01*
X162414304Y-99871695D01*
X162298190Y-99832990D01*
X162220780Y-99755580D01*
X162182076Y-99678171D01*
X162143371Y-99523352D01*
X162143371Y-99407238D01*
X162182076Y-99252419D01*
X162220780Y-99175009D01*
X162298190Y-99097600D01*
X162414304Y-99058895D01*
X162491714Y-99058895D01*
X162607828Y-99097600D01*
X162646533Y-99136304D01*
X163343219Y-99329828D02*
X163343219Y-99871695D01*
X163149695Y-99020190D02*
X162956171Y-99600761D01*
X163459333Y-99600761D01*
X134230533Y-99794285D02*
X134191828Y-99832990D01*
X134075714Y-99871695D01*
X133998304Y-99871695D01*
X133882190Y-99832990D01*
X133804780Y-99755580D01*
X133766076Y-99678171D01*
X133727371Y-99523352D01*
X133727371Y-99407238D01*
X133766076Y-99252419D01*
X133804780Y-99175009D01*
X133882190Y-99097600D01*
X133998304Y-99058895D01*
X134075714Y-99058895D01*
X134191828Y-99097600D01*
X134230533Y-99136304D01*
X134927219Y-99329828D02*
X134927219Y-99871695D01*
X134733695Y-99020190D02*
X134540171Y-99600761D01*
X135043333Y-99600761D01*
X191062533Y-78998285D02*
X191023828Y-79036990D01*
X190907714Y-79075695D01*
X190830304Y-79075695D01*
X190714190Y-79036990D01*
X190636780Y-78959580D01*
X190598076Y-78882171D01*
X190559371Y-78727352D01*
X190559371Y-78611238D01*
X190598076Y-78456419D01*
X190636780Y-78379009D01*
X190714190Y-78301600D01*
X190830304Y-78262895D01*
X190907714Y-78262895D01*
X191023828Y-78301600D01*
X191062533Y-78340304D01*
X191759219Y-78533828D02*
X191759219Y-79075695D01*
X191565695Y-78224190D02*
X191372171Y-78804761D01*
X191875333Y-78804761D01*
X162646533Y-78998285D02*
X162607828Y-79036990D01*
X162491714Y-79075695D01*
X162414304Y-79075695D01*
X162298190Y-79036990D01*
X162220780Y-78959580D01*
X162182076Y-78882171D01*
X162143371Y-78727352D01*
X162143371Y-78611238D01*
X162182076Y-78456419D01*
X162220780Y-78379009D01*
X162298190Y-78301600D01*
X162414304Y-78262895D01*
X162491714Y-78262895D01*
X162607828Y-78301600D01*
X162646533Y-78340304D01*
X163343219Y-78533828D02*
X163343219Y-79075695D01*
X163149695Y-78224190D02*
X162956171Y-78804761D01*
X163459333Y-78804761D01*
X134230533Y-78998285D02*
X134191828Y-79036990D01*
X134075714Y-79075695D01*
X133998304Y-79075695D01*
X133882190Y-79036990D01*
X133804780Y-78959580D01*
X133766076Y-78882171D01*
X133727371Y-78727352D01*
X133727371Y-78611238D01*
X133766076Y-78456419D01*
X133804780Y-78379009D01*
X133882190Y-78301600D01*
X133998304Y-78262895D01*
X134075714Y-78262895D01*
X134191828Y-78301600D01*
X134230533Y-78340304D01*
X134927219Y-78533828D02*
X134927219Y-79075695D01*
X134733695Y-78224190D02*
X134540171Y-78804761D01*
X135043333Y-78804761D01*
X191062533Y-58202285D02*
X191023828Y-58240990D01*
X190907714Y-58279695D01*
X190830304Y-58279695D01*
X190714190Y-58240990D01*
X190636780Y-58163580D01*
X190598076Y-58086171D01*
X190559371Y-57931352D01*
X190559371Y-57815238D01*
X190598076Y-57660419D01*
X190636780Y-57583009D01*
X190714190Y-57505600D01*
X190830304Y-57466895D01*
X190907714Y-57466895D01*
X191023828Y-57505600D01*
X191062533Y-57544304D01*
X191759219Y-57737828D02*
X191759219Y-58279695D01*
X191565695Y-57428190D02*
X191372171Y-58008761D01*
X191875333Y-58008761D01*
X162646533Y-58202285D02*
X162607828Y-58240990D01*
X162491714Y-58279695D01*
X162414304Y-58279695D01*
X162298190Y-58240990D01*
X162220780Y-58163580D01*
X162182076Y-58086171D01*
X162143371Y-57931352D01*
X162143371Y-57815238D01*
X162182076Y-57660419D01*
X162220780Y-57583009D01*
X162298190Y-57505600D01*
X162414304Y-57466895D01*
X162491714Y-57466895D01*
X162607828Y-57505600D01*
X162646533Y-57544304D01*
X163343219Y-57737828D02*
X163343219Y-58279695D01*
X163149695Y-57428190D02*
X162956171Y-58008761D01*
X163459333Y-58008761D01*
X184482723Y-122648895D02*
X184482723Y-123306876D01*
X184521428Y-123384285D01*
X184560133Y-123422990D01*
X184637542Y-123461695D01*
X184792361Y-123461695D01*
X184869771Y-123422990D01*
X184908476Y-123384285D01*
X184947180Y-123306876D01*
X184947180Y-122648895D01*
X185759980Y-123461695D02*
X185295523Y-123461695D01*
X185527752Y-123461695D02*
X185527752Y-122648895D01*
X185450342Y-122765009D01*
X185372933Y-122842419D01*
X185295523Y-122881123D01*
X156066723Y-122648895D02*
X156066723Y-123306876D01*
X156105428Y-123384285D01*
X156144133Y-123422990D01*
X156221542Y-123461695D01*
X156376361Y-123461695D01*
X156453771Y-123422990D01*
X156492476Y-123384285D01*
X156531180Y-123306876D01*
X156531180Y-122648895D01*
X157343980Y-123461695D02*
X156879523Y-123461695D01*
X157111752Y-123461695D02*
X157111752Y-122648895D01*
X157034342Y-122765009D01*
X156956933Y-122842419D01*
X156879523Y-122881123D01*
X127650723Y-122648895D02*
X127650723Y-123306876D01*
X127689428Y-123384285D01*
X127728133Y-123422990D01*
X127805542Y-123461695D01*
X127960361Y-123461695D01*
X128037771Y-123422990D01*
X128076476Y-123384285D01*
X128115180Y-123306876D01*
X128115180Y-122648895D01*
X128927980Y-123461695D02*
X128463523Y-123461695D01*
X128695752Y-123461695D02*
X128695752Y-122648895D01*
X128618342Y-122765009D01*
X128540933Y-122842419D01*
X128463523Y-122881123D01*
X184482723Y-101852895D02*
X184482723Y-102510876D01*
X184521428Y-102588285D01*
X184560133Y-102626990D01*
X184637542Y-102665695D01*
X184792361Y-102665695D01*
X184869771Y-102626990D01*
X184908476Y-102588285D01*
X184947180Y-102510876D01*
X184947180Y-101852895D01*
X185759980Y-102665695D02*
X185295523Y-102665695D01*
X185527752Y-102665695D02*
X185527752Y-101852895D01*
X185450342Y-101969009D01*
X185372933Y-102046419D01*
X185295523Y-102085123D01*
X156066723Y-101852895D02*
X156066723Y-102510876D01*
X156105428Y-102588285D01*
X156144133Y-102626990D01*
X156221542Y-102665695D01*
X156376361Y-102665695D01*
X156453771Y-102626990D01*
X156492476Y-102588285D01*
X156531180Y-102510876D01*
X156531180Y-101852895D01*
X157343980Y-102665695D02*
X156879523Y-102665695D01*
X157111752Y-102665695D02*
X157111752Y-101852895D01*
X157034342Y-101969009D01*
X156956933Y-102046419D01*
X156879523Y-102085123D01*
X127650723Y-101852895D02*
X127650723Y-102510876D01*
X127689428Y-102588285D01*
X127728133Y-102626990D01*
X127805542Y-102665695D01*
X127960361Y-102665695D01*
X128037771Y-102626990D01*
X128076476Y-102588285D01*
X128115180Y-102510876D01*
X128115180Y-101852895D01*
X128927980Y-102665695D02*
X128463523Y-102665695D01*
X128695752Y-102665695D02*
X128695752Y-101852895D01*
X128618342Y-101969009D01*
X128540933Y-102046419D01*
X128463523Y-102085123D01*
X184482723Y-81056895D02*
X184482723Y-81714876D01*
X184521428Y-81792285D01*
X184560133Y-81830990D01*
X184637542Y-81869695D01*
X184792361Y-81869695D01*
X184869771Y-81830990D01*
X184908476Y-81792285D01*
X184947180Y-81714876D01*
X184947180Y-81056895D01*
X185759980Y-81869695D02*
X185295523Y-81869695D01*
X185527752Y-81869695D02*
X185527752Y-81056895D01*
X185450342Y-81173009D01*
X185372933Y-81250419D01*
X185295523Y-81289123D01*
X156066723Y-81056895D02*
X156066723Y-81714876D01*
X156105428Y-81792285D01*
X156144133Y-81830990D01*
X156221542Y-81869695D01*
X156376361Y-81869695D01*
X156453771Y-81830990D01*
X156492476Y-81792285D01*
X156531180Y-81714876D01*
X156531180Y-81056895D01*
X157343980Y-81869695D02*
X156879523Y-81869695D01*
X157111752Y-81869695D02*
X157111752Y-81056895D01*
X157034342Y-81173009D01*
X156956933Y-81250419D01*
X156879523Y-81289123D01*
X127650723Y-81056895D02*
X127650723Y-81714876D01*
X127689428Y-81792285D01*
X127728133Y-81830990D01*
X127805542Y-81869695D01*
X127960361Y-81869695D01*
X128037771Y-81830990D01*
X128076476Y-81792285D01*
X128115180Y-81714876D01*
X128115180Y-81056895D01*
X128927980Y-81869695D02*
X128463523Y-81869695D01*
X128695752Y-81869695D02*
X128695752Y-81056895D01*
X128618342Y-81173009D01*
X128540933Y-81250419D01*
X128463523Y-81289123D01*
X184482723Y-60260895D02*
X184482723Y-60918876D01*
X184521428Y-60996285D01*
X184560133Y-61034990D01*
X184637542Y-61073695D01*
X184792361Y-61073695D01*
X184869771Y-61034990D01*
X184908476Y-60996285D01*
X184947180Y-60918876D01*
X184947180Y-60260895D01*
X185759980Y-61073695D02*
X185295523Y-61073695D01*
X185527752Y-61073695D02*
X185527752Y-60260895D01*
X185450342Y-60377009D01*
X185372933Y-60454419D01*
X185295523Y-60493123D01*
X156066723Y-60260895D02*
X156066723Y-60918876D01*
X156105428Y-60996285D01*
X156144133Y-61034990D01*
X156221542Y-61073695D01*
X156376361Y-61073695D01*
X156453771Y-61034990D01*
X156492476Y-60996285D01*
X156531180Y-60918876D01*
X156531180Y-60260895D01*
X157343980Y-61073695D02*
X156879523Y-61073695D01*
X157111752Y-61073695D02*
X157111752Y-60260895D01*
X157034342Y-60377009D01*
X156956933Y-60454419D01*
X156879523Y-60493123D01*
X170996533Y-119828285D02*
X170957828Y-119866990D01*
X170841714Y-119905695D01*
X170764304Y-119905695D01*
X170648190Y-119866990D01*
X170570780Y-119789580D01*
X170532076Y-119712171D01*
X170493371Y-119557352D01*
X170493371Y-119441238D01*
X170532076Y-119286419D01*
X170570780Y-119209009D01*
X170648190Y-119131600D01*
X170764304Y-119092895D01*
X170841714Y-119092895D01*
X170957828Y-119131600D01*
X170996533Y-119170304D01*
X171770628Y-119905695D02*
X171306171Y-119905695D01*
X171538400Y-119905695D02*
X171538400Y-119092895D01*
X171460990Y-119209009D01*
X171383580Y-119286419D01*
X171306171Y-119325123D01*
X142580533Y-119828285D02*
X142541828Y-119866990D01*
X142425714Y-119905695D01*
X142348304Y-119905695D01*
X142232190Y-119866990D01*
X142154780Y-119789580D01*
X142116076Y-119712171D01*
X142077371Y-119557352D01*
X142077371Y-119441238D01*
X142116076Y-119286419D01*
X142154780Y-119209009D01*
X142232190Y-119131600D01*
X142348304Y-119092895D01*
X142425714Y-119092895D01*
X142541828Y-119131600D01*
X142580533Y-119170304D01*
X143354628Y-119905695D02*
X142890171Y-119905695D01*
X143122400Y-119905695D02*
X143122400Y-119092895D01*
X143044990Y-119209009D01*
X142967580Y-119286419D01*
X142890171Y-119325123D01*
X114164533Y-119828285D02*
X114125828Y-119866990D01*
X114009714Y-119905695D01*
X113932304Y-119905695D01*
X113816190Y-119866990D01*
X113738780Y-119789580D01*
X113700076Y-119712171D01*
X113661371Y-119557352D01*
X113661371Y-119441238D01*
X113700076Y-119286419D01*
X113738780Y-119209009D01*
X113816190Y-119131600D01*
X113932304Y-119092895D01*
X114009714Y-119092895D01*
X114125828Y-119131600D01*
X114164533Y-119170304D01*
X114938628Y-119905695D02*
X114474171Y-119905695D01*
X114706400Y-119905695D02*
X114706400Y-119092895D01*
X114628990Y-119209009D01*
X114551580Y-119286419D01*
X114474171Y-119325123D01*
X170996533Y-99032285D02*
X170957828Y-99070990D01*
X170841714Y-99109695D01*
X170764304Y-99109695D01*
X170648190Y-99070990D01*
X170570780Y-98993580D01*
X170532076Y-98916171D01*
X170493371Y-98761352D01*
X170493371Y-98645238D01*
X170532076Y-98490419D01*
X170570780Y-98413009D01*
X170648190Y-98335600D01*
X170764304Y-98296895D01*
X170841714Y-98296895D01*
X170957828Y-98335600D01*
X170996533Y-98374304D01*
X171770628Y-99109695D02*
X171306171Y-99109695D01*
X171538400Y-99109695D02*
X171538400Y-98296895D01*
X171460990Y-98413009D01*
X171383580Y-98490419D01*
X171306171Y-98529123D01*
X142580533Y-99032285D02*
X142541828Y-99070990D01*
X142425714Y-99109695D01*
X142348304Y-99109695D01*
X142232190Y-99070990D01*
X142154780Y-98993580D01*
X142116076Y-98916171D01*
X142077371Y-98761352D01*
X142077371Y-98645238D01*
X142116076Y-98490419D01*
X142154780Y-98413009D01*
X142232190Y-98335600D01*
X142348304Y-98296895D01*
X142425714Y-98296895D01*
X142541828Y-98335600D01*
X142580533Y-98374304D01*
X143354628Y-99109695D02*
X142890171Y-99109695D01*
X143122400Y-99109695D02*
X143122400Y-98296895D01*
X143044990Y-98413009D01*
X142967580Y-98490419D01*
X142890171Y-98529123D01*
X114164533Y-99032285D02*
X114125828Y-99070990D01*
X114009714Y-99109695D01*
X113932304Y-99109695D01*
X113816190Y-99070990D01*
X113738780Y-98993580D01*
X113700076Y-98916171D01*
X113661371Y-98761352D01*
X113661371Y-98645238D01*
X113700076Y-98490419D01*
X113738780Y-98413009D01*
X113816190Y-98335600D01*
X113932304Y-98296895D01*
X114009714Y-98296895D01*
X114125828Y-98335600D01*
X114164533Y-98374304D01*
X114938628Y-99109695D02*
X114474171Y-99109695D01*
X114706400Y-99109695D02*
X114706400Y-98296895D01*
X114628990Y-98413009D01*
X114551580Y-98490419D01*
X114474171Y-98529123D01*
X170996533Y-78236285D02*
X170957828Y-78274990D01*
X170841714Y-78313695D01*
X170764304Y-78313695D01*
X170648190Y-78274990D01*
X170570780Y-78197580D01*
X170532076Y-78120171D01*
X170493371Y-77965352D01*
X170493371Y-77849238D01*
X170532076Y-77694419D01*
X170570780Y-77617009D01*
X170648190Y-77539600D01*
X170764304Y-77500895D01*
X170841714Y-77500895D01*
X170957828Y-77539600D01*
X170996533Y-77578304D01*
X171770628Y-78313695D02*
X171306171Y-78313695D01*
X171538400Y-78313695D02*
X171538400Y-77500895D01*
X171460990Y-77617009D01*
X171383580Y-77694419D01*
X171306171Y-77733123D01*
X142580533Y-78236285D02*
X142541828Y-78274990D01*
X142425714Y-78313695D01*
X142348304Y-78313695D01*
X142232190Y-78274990D01*
X142154780Y-78197580D01*
X142116076Y-78120171D01*
X142077371Y-77965352D01*
X142077371Y-77849238D01*
X142116076Y-77694419D01*
X142154780Y-77617009D01*
X142232190Y-77539600D01*
X142348304Y-77500895D01*
X142425714Y-77500895D01*
X142541828Y-77539600D01*
X142580533Y-77578304D01*
X143354628Y-78313695D02*
X142890171Y-78313695D01*
X143122400Y-78313695D02*
X143122400Y-77500895D01*
X143044990Y-77617009D01*
X142967580Y-77694419D01*
X142890171Y-77733123D01*
X114164533Y-78236285D02*
X114125828Y-78274990D01*
X114009714Y-78313695D01*
X113932304Y-78313695D01*
X113816190Y-78274990D01*
X113738780Y-78197580D01*
X113700076Y-78120171D01*
X113661371Y-77965352D01*
X113661371Y-77849238D01*
X113700076Y-77694419D01*
X113738780Y-77617009D01*
X113816190Y-77539600D01*
X113932304Y-77500895D01*
X114009714Y-77500895D01*
X114125828Y-77539600D01*
X114164533Y-77578304D01*
X114938628Y-78313695D02*
X114474171Y-78313695D01*
X114706400Y-78313695D02*
X114706400Y-77500895D01*
X114628990Y-77617009D01*
X114551580Y-77694419D01*
X114474171Y-77733123D01*
X170996533Y-57440285D02*
X170957828Y-57478990D01*
X170841714Y-57517695D01*
X170764304Y-57517695D01*
X170648190Y-57478990D01*
X170570780Y-57401580D01*
X170532076Y-57324171D01*
X170493371Y-57169352D01*
X170493371Y-57053238D01*
X170532076Y-56898419D01*
X170570780Y-56821009D01*
X170648190Y-56743600D01*
X170764304Y-56704895D01*
X170841714Y-56704895D01*
X170957828Y-56743600D01*
X170996533Y-56782304D01*
X171770628Y-57517695D02*
X171306171Y-57517695D01*
X171538400Y-57517695D02*
X171538400Y-56704895D01*
X171460990Y-56821009D01*
X171383580Y-56898419D01*
X171306171Y-56937123D01*
X142580533Y-57440285D02*
X142541828Y-57478990D01*
X142425714Y-57517695D01*
X142348304Y-57517695D01*
X142232190Y-57478990D01*
X142154780Y-57401580D01*
X142116076Y-57324171D01*
X142077371Y-57169352D01*
X142077371Y-57053238D01*
X142116076Y-56898419D01*
X142154780Y-56821009D01*
X142232190Y-56743600D01*
X142348304Y-56704895D01*
X142425714Y-56704895D01*
X142541828Y-56743600D01*
X142580533Y-56782304D01*
X143354628Y-57517695D02*
X142890171Y-57517695D01*
X143122400Y-57517695D02*
X143122400Y-56704895D01*
X143044990Y-56821009D01*
X142967580Y-56898419D01*
X142890171Y-56937123D01*
X176882076Y-118127695D02*
X176882076Y-117314895D01*
X177075600Y-117314895D01*
X177191714Y-117353600D01*
X177269123Y-117431009D01*
X177307828Y-117508419D01*
X177346533Y-117663238D01*
X177346533Y-117779352D01*
X177307828Y-117934171D01*
X177269123Y-118011580D01*
X177191714Y-118088990D01*
X177075600Y-118127695D01*
X176882076Y-118127695D01*
X178120628Y-118127695D02*
X177656171Y-118127695D01*
X177888400Y-118127695D02*
X177888400Y-117314895D01*
X177810990Y-117431009D01*
X177733580Y-117508419D01*
X177656171Y-117547123D01*
X148466076Y-118127695D02*
X148466076Y-117314895D01*
X148659600Y-117314895D01*
X148775714Y-117353600D01*
X148853123Y-117431009D01*
X148891828Y-117508419D01*
X148930533Y-117663238D01*
X148930533Y-117779352D01*
X148891828Y-117934171D01*
X148853123Y-118011580D01*
X148775714Y-118088990D01*
X148659600Y-118127695D01*
X148466076Y-118127695D01*
X149704628Y-118127695D02*
X149240171Y-118127695D01*
X149472400Y-118127695D02*
X149472400Y-117314895D01*
X149394990Y-117431009D01*
X149317580Y-117508419D01*
X149240171Y-117547123D01*
X120050076Y-118127695D02*
X120050076Y-117314895D01*
X120243600Y-117314895D01*
X120359714Y-117353600D01*
X120437123Y-117431009D01*
X120475828Y-117508419D01*
X120514533Y-117663238D01*
X120514533Y-117779352D01*
X120475828Y-117934171D01*
X120437123Y-118011580D01*
X120359714Y-118088990D01*
X120243600Y-118127695D01*
X120050076Y-118127695D01*
X121288628Y-118127695D02*
X120824171Y-118127695D01*
X121056400Y-118127695D02*
X121056400Y-117314895D01*
X120978990Y-117431009D01*
X120901580Y-117508419D01*
X120824171Y-117547123D01*
X176882076Y-97331695D02*
X176882076Y-96518895D01*
X177075600Y-96518895D01*
X177191714Y-96557600D01*
X177269123Y-96635009D01*
X177307828Y-96712419D01*
X177346533Y-96867238D01*
X177346533Y-96983352D01*
X177307828Y-97138171D01*
X177269123Y-97215580D01*
X177191714Y-97292990D01*
X177075600Y-97331695D01*
X176882076Y-97331695D01*
X178120628Y-97331695D02*
X177656171Y-97331695D01*
X177888400Y-97331695D02*
X177888400Y-96518895D01*
X177810990Y-96635009D01*
X177733580Y-96712419D01*
X177656171Y-96751123D01*
X148466076Y-97331695D02*
X148466076Y-96518895D01*
X148659600Y-96518895D01*
X148775714Y-96557600D01*
X148853123Y-96635009D01*
X148891828Y-96712419D01*
X148930533Y-96867238D01*
X148930533Y-96983352D01*
X148891828Y-97138171D01*
X148853123Y-97215580D01*
X148775714Y-97292990D01*
X148659600Y-97331695D01*
X148466076Y-97331695D01*
X149704628Y-97331695D02*
X149240171Y-97331695D01*
X149472400Y-97331695D02*
X149472400Y-96518895D01*
X149394990Y-96635009D01*
X149317580Y-96712419D01*
X149240171Y-96751123D01*
X120050076Y-97331695D02*
X120050076Y-96518895D01*
X120243600Y-96518895D01*
X120359714Y-96557600D01*
X120437123Y-96635009D01*
X120475828Y-96712419D01*
X120514533Y-96867238D01*
X120514533Y-96983352D01*
X120475828Y-97138171D01*
X120437123Y-97215580D01*
X120359714Y-97292990D01*
X120243600Y-97331695D01*
X120050076Y-97331695D01*
X121288628Y-97331695D02*
X120824171Y-97331695D01*
X121056400Y-97331695D02*
X121056400Y-96518895D01*
X120978990Y-96635009D01*
X120901580Y-96712419D01*
X120824171Y-96751123D01*
X176882076Y-76535695D02*
X176882076Y-75722895D01*
X177075600Y-75722895D01*
X177191714Y-75761600D01*
X177269123Y-75839009D01*
X177307828Y-75916419D01*
X177346533Y-76071238D01*
X177346533Y-76187352D01*
X177307828Y-76342171D01*
X177269123Y-76419580D01*
X177191714Y-76496990D01*
X177075600Y-76535695D01*
X176882076Y-76535695D01*
X178120628Y-76535695D02*
X177656171Y-76535695D01*
X177888400Y-76535695D02*
X177888400Y-75722895D01*
X177810990Y-75839009D01*
X177733580Y-75916419D01*
X177656171Y-75955123D01*
X148466076Y-76535695D02*
X148466076Y-75722895D01*
X148659600Y-75722895D01*
X148775714Y-75761600D01*
X148853123Y-75839009D01*
X148891828Y-75916419D01*
X148930533Y-76071238D01*
X148930533Y-76187352D01*
X148891828Y-76342171D01*
X148853123Y-76419580D01*
X148775714Y-76496990D01*
X148659600Y-76535695D01*
X148466076Y-76535695D01*
X149704628Y-76535695D02*
X149240171Y-76535695D01*
X149472400Y-76535695D02*
X149472400Y-75722895D01*
X149394990Y-75839009D01*
X149317580Y-75916419D01*
X149240171Y-75955123D01*
X120050076Y-76535695D02*
X120050076Y-75722895D01*
X120243600Y-75722895D01*
X120359714Y-75761600D01*
X120437123Y-75839009D01*
X120475828Y-75916419D01*
X120514533Y-76071238D01*
X120514533Y-76187352D01*
X120475828Y-76342171D01*
X120437123Y-76419580D01*
X120359714Y-76496990D01*
X120243600Y-76535695D01*
X120050076Y-76535695D01*
X121288628Y-76535695D02*
X120824171Y-76535695D01*
X121056400Y-76535695D02*
X121056400Y-75722895D01*
X120978990Y-75839009D01*
X120901580Y-75916419D01*
X120824171Y-75955123D01*
X176882076Y-55739695D02*
X176882076Y-54926895D01*
X177075600Y-54926895D01*
X177191714Y-54965600D01*
X177269123Y-55043009D01*
X177307828Y-55120419D01*
X177346533Y-55275238D01*
X177346533Y-55391352D01*
X177307828Y-55546171D01*
X177269123Y-55623580D01*
X177191714Y-55700990D01*
X177075600Y-55739695D01*
X176882076Y-55739695D01*
X178120628Y-55739695D02*
X177656171Y-55739695D01*
X177888400Y-55739695D02*
X177888400Y-54926895D01*
X177810990Y-55043009D01*
X177733580Y-55120419D01*
X177656171Y-55159123D01*
X148466076Y-55739695D02*
X148466076Y-54926895D01*
X148659600Y-54926895D01*
X148775714Y-54965600D01*
X148853123Y-55043009D01*
X148891828Y-55120419D01*
X148930533Y-55275238D01*
X148930533Y-55391352D01*
X148891828Y-55546171D01*
X148853123Y-55623580D01*
X148775714Y-55700990D01*
X148659600Y-55739695D01*
X148466076Y-55739695D01*
X149704628Y-55739695D02*
X149240171Y-55739695D01*
X149472400Y-55739695D02*
X149472400Y-54926895D01*
X149394990Y-55043009D01*
X149317580Y-55120419D01*
X149240171Y-55159123D01*
X191316533Y-128541695D02*
X191045600Y-128154647D01*
X190852076Y-128541695D02*
X190852076Y-127728895D01*
X191161714Y-127728895D01*
X191239123Y-127767600D01*
X191277828Y-127806304D01*
X191316533Y-127883714D01*
X191316533Y-127999828D01*
X191277828Y-128077238D01*
X191239123Y-128115942D01*
X191161714Y-128154647D01*
X190852076Y-128154647D01*
X191587466Y-127728895D02*
X192090628Y-127728895D01*
X191819695Y-128038533D01*
X191935809Y-128038533D01*
X192013219Y-128077238D01*
X192051923Y-128115942D01*
X192090628Y-128193352D01*
X192090628Y-128386876D01*
X192051923Y-128464285D01*
X192013219Y-128502990D01*
X191935809Y-128541695D01*
X191703580Y-128541695D01*
X191626171Y-128502990D01*
X191587466Y-128464285D01*
X162900533Y-128541695D02*
X162629600Y-128154647D01*
X162436076Y-128541695D02*
X162436076Y-127728895D01*
X162745714Y-127728895D01*
X162823123Y-127767600D01*
X162861828Y-127806304D01*
X162900533Y-127883714D01*
X162900533Y-127999828D01*
X162861828Y-128077238D01*
X162823123Y-128115942D01*
X162745714Y-128154647D01*
X162436076Y-128154647D01*
X163171466Y-127728895D02*
X163674628Y-127728895D01*
X163403695Y-128038533D01*
X163519809Y-128038533D01*
X163597219Y-128077238D01*
X163635923Y-128115942D01*
X163674628Y-128193352D01*
X163674628Y-128386876D01*
X163635923Y-128464285D01*
X163597219Y-128502990D01*
X163519809Y-128541695D01*
X163287580Y-128541695D01*
X163210171Y-128502990D01*
X163171466Y-128464285D01*
X134484533Y-128541695D02*
X134213600Y-128154647D01*
X134020076Y-128541695D02*
X134020076Y-127728895D01*
X134329714Y-127728895D01*
X134407123Y-127767600D01*
X134445828Y-127806304D01*
X134484533Y-127883714D01*
X134484533Y-127999828D01*
X134445828Y-128077238D01*
X134407123Y-128115942D01*
X134329714Y-128154647D01*
X134020076Y-128154647D01*
X134755466Y-127728895D02*
X135258628Y-127728895D01*
X134987695Y-128038533D01*
X135103809Y-128038533D01*
X135181219Y-128077238D01*
X135219923Y-128115942D01*
X135258628Y-128193352D01*
X135258628Y-128386876D01*
X135219923Y-128464285D01*
X135181219Y-128502990D01*
X135103809Y-128541695D01*
X134871580Y-128541695D01*
X134794171Y-128502990D01*
X134755466Y-128464285D01*
X191316533Y-107745695D02*
X191045600Y-107358647D01*
X190852076Y-107745695D02*
X190852076Y-106932895D01*
X191161714Y-106932895D01*
X191239123Y-106971600D01*
X191277828Y-107010304D01*
X191316533Y-107087714D01*
X191316533Y-107203828D01*
X191277828Y-107281238D01*
X191239123Y-107319942D01*
X191161714Y-107358647D01*
X190852076Y-107358647D01*
X191587466Y-106932895D02*
X192090628Y-106932895D01*
X191819695Y-107242533D01*
X191935809Y-107242533D01*
X192013219Y-107281238D01*
X192051923Y-107319942D01*
X192090628Y-107397352D01*
X192090628Y-107590876D01*
X192051923Y-107668285D01*
X192013219Y-107706990D01*
X191935809Y-107745695D01*
X191703580Y-107745695D01*
X191626171Y-107706990D01*
X191587466Y-107668285D01*
X162900533Y-107745695D02*
X162629600Y-107358647D01*
X162436076Y-107745695D02*
X162436076Y-106932895D01*
X162745714Y-106932895D01*
X162823123Y-106971600D01*
X162861828Y-107010304D01*
X162900533Y-107087714D01*
X162900533Y-107203828D01*
X162861828Y-107281238D01*
X162823123Y-107319942D01*
X162745714Y-107358647D01*
X162436076Y-107358647D01*
X163171466Y-106932895D02*
X163674628Y-106932895D01*
X163403695Y-107242533D01*
X163519809Y-107242533D01*
X163597219Y-107281238D01*
X163635923Y-107319942D01*
X163674628Y-107397352D01*
X163674628Y-107590876D01*
X163635923Y-107668285D01*
X163597219Y-107706990D01*
X163519809Y-107745695D01*
X163287580Y-107745695D01*
X163210171Y-107706990D01*
X163171466Y-107668285D01*
X134484533Y-107745695D02*
X134213600Y-107358647D01*
X134020076Y-107745695D02*
X134020076Y-106932895D01*
X134329714Y-106932895D01*
X134407123Y-106971600D01*
X134445828Y-107010304D01*
X134484533Y-107087714D01*
X134484533Y-107203828D01*
X134445828Y-107281238D01*
X134407123Y-107319942D01*
X134329714Y-107358647D01*
X134020076Y-107358647D01*
X134755466Y-106932895D02*
X135258628Y-106932895D01*
X134987695Y-107242533D01*
X135103809Y-107242533D01*
X135181219Y-107281238D01*
X135219923Y-107319942D01*
X135258628Y-107397352D01*
X135258628Y-107590876D01*
X135219923Y-107668285D01*
X135181219Y-107706990D01*
X135103809Y-107745695D01*
X134871580Y-107745695D01*
X134794171Y-107706990D01*
X134755466Y-107668285D01*
X191316533Y-86949695D02*
X191045600Y-86562647D01*
X190852076Y-86949695D02*
X190852076Y-86136895D01*
X191161714Y-86136895D01*
X191239123Y-86175600D01*
X191277828Y-86214304D01*
X191316533Y-86291714D01*
X191316533Y-86407828D01*
X191277828Y-86485238D01*
X191239123Y-86523942D01*
X191161714Y-86562647D01*
X190852076Y-86562647D01*
X191587466Y-86136895D02*
X192090628Y-86136895D01*
X191819695Y-86446533D01*
X191935809Y-86446533D01*
X192013219Y-86485238D01*
X192051923Y-86523942D01*
X192090628Y-86601352D01*
X192090628Y-86794876D01*
X192051923Y-86872285D01*
X192013219Y-86910990D01*
X191935809Y-86949695D01*
X191703580Y-86949695D01*
X191626171Y-86910990D01*
X191587466Y-86872285D01*
X162900533Y-86949695D02*
X162629600Y-86562647D01*
X162436076Y-86949695D02*
X162436076Y-86136895D01*
X162745714Y-86136895D01*
X162823123Y-86175600D01*
X162861828Y-86214304D01*
X162900533Y-86291714D01*
X162900533Y-86407828D01*
X162861828Y-86485238D01*
X162823123Y-86523942D01*
X162745714Y-86562647D01*
X162436076Y-86562647D01*
X163171466Y-86136895D02*
X163674628Y-86136895D01*
X163403695Y-86446533D01*
X163519809Y-86446533D01*
X163597219Y-86485238D01*
X163635923Y-86523942D01*
X163674628Y-86601352D01*
X163674628Y-86794876D01*
X163635923Y-86872285D01*
X163597219Y-86910990D01*
X163519809Y-86949695D01*
X163287580Y-86949695D01*
X163210171Y-86910990D01*
X163171466Y-86872285D01*
X134484533Y-86949695D02*
X134213600Y-86562647D01*
X134020076Y-86949695D02*
X134020076Y-86136895D01*
X134329714Y-86136895D01*
X134407123Y-86175600D01*
X134445828Y-86214304D01*
X134484533Y-86291714D01*
X134484533Y-86407828D01*
X134445828Y-86485238D01*
X134407123Y-86523942D01*
X134329714Y-86562647D01*
X134020076Y-86562647D01*
X134755466Y-86136895D02*
X135258628Y-86136895D01*
X134987695Y-86446533D01*
X135103809Y-86446533D01*
X135181219Y-86485238D01*
X135219923Y-86523942D01*
X135258628Y-86601352D01*
X135258628Y-86794876D01*
X135219923Y-86872285D01*
X135181219Y-86910990D01*
X135103809Y-86949695D01*
X134871580Y-86949695D01*
X134794171Y-86910990D01*
X134755466Y-86872285D01*
X191316533Y-66153695D02*
X191045600Y-65766647D01*
X190852076Y-66153695D02*
X190852076Y-65340895D01*
X191161714Y-65340895D01*
X191239123Y-65379600D01*
X191277828Y-65418304D01*
X191316533Y-65495714D01*
X191316533Y-65611828D01*
X191277828Y-65689238D01*
X191239123Y-65727942D01*
X191161714Y-65766647D01*
X190852076Y-65766647D01*
X191587466Y-65340895D02*
X192090628Y-65340895D01*
X191819695Y-65650533D01*
X191935809Y-65650533D01*
X192013219Y-65689238D01*
X192051923Y-65727942D01*
X192090628Y-65805352D01*
X192090628Y-65998876D01*
X192051923Y-66076285D01*
X192013219Y-66114990D01*
X191935809Y-66153695D01*
X191703580Y-66153695D01*
X191626171Y-66114990D01*
X191587466Y-66076285D01*
X162900533Y-66153695D02*
X162629600Y-65766647D01*
X162436076Y-66153695D02*
X162436076Y-65340895D01*
X162745714Y-65340895D01*
X162823123Y-65379600D01*
X162861828Y-65418304D01*
X162900533Y-65495714D01*
X162900533Y-65611828D01*
X162861828Y-65689238D01*
X162823123Y-65727942D01*
X162745714Y-65766647D01*
X162436076Y-65766647D01*
X163171466Y-65340895D02*
X163674628Y-65340895D01*
X163403695Y-65650533D01*
X163519809Y-65650533D01*
X163597219Y-65689238D01*
X163635923Y-65727942D01*
X163674628Y-65805352D01*
X163674628Y-65998876D01*
X163635923Y-66076285D01*
X163597219Y-66114990D01*
X163519809Y-66153695D01*
X163287580Y-66153695D01*
X163210171Y-66114990D01*
X163171466Y-66076285D01*
X170996533Y-118381695D02*
X170725600Y-117994647D01*
X170532076Y-118381695D02*
X170532076Y-117568895D01*
X170841714Y-117568895D01*
X170919123Y-117607600D01*
X170957828Y-117646304D01*
X170996533Y-117723714D01*
X170996533Y-117839828D01*
X170957828Y-117917238D01*
X170919123Y-117955942D01*
X170841714Y-117994647D01*
X170532076Y-117994647D01*
X171770628Y-118381695D02*
X171306171Y-118381695D01*
X171538400Y-118381695D02*
X171538400Y-117568895D01*
X171460990Y-117685009D01*
X171383580Y-117762419D01*
X171306171Y-117801123D01*
X142580533Y-118381695D02*
X142309600Y-117994647D01*
X142116076Y-118381695D02*
X142116076Y-117568895D01*
X142425714Y-117568895D01*
X142503123Y-117607600D01*
X142541828Y-117646304D01*
X142580533Y-117723714D01*
X142580533Y-117839828D01*
X142541828Y-117917238D01*
X142503123Y-117955942D01*
X142425714Y-117994647D01*
X142116076Y-117994647D01*
X143354628Y-118381695D02*
X142890171Y-118381695D01*
X143122400Y-118381695D02*
X143122400Y-117568895D01*
X143044990Y-117685009D01*
X142967580Y-117762419D01*
X142890171Y-117801123D01*
X114164533Y-118381695D02*
X113893600Y-117994647D01*
X113700076Y-118381695D02*
X113700076Y-117568895D01*
X114009714Y-117568895D01*
X114087123Y-117607600D01*
X114125828Y-117646304D01*
X114164533Y-117723714D01*
X114164533Y-117839828D01*
X114125828Y-117917238D01*
X114087123Y-117955942D01*
X114009714Y-117994647D01*
X113700076Y-117994647D01*
X114938628Y-118381695D02*
X114474171Y-118381695D01*
X114706400Y-118381695D02*
X114706400Y-117568895D01*
X114628990Y-117685009D01*
X114551580Y-117762419D01*
X114474171Y-117801123D01*
X170996533Y-97585695D02*
X170725600Y-97198647D01*
X170532076Y-97585695D02*
X170532076Y-96772895D01*
X170841714Y-96772895D01*
X170919123Y-96811600D01*
X170957828Y-96850304D01*
X170996533Y-96927714D01*
X170996533Y-97043828D01*
X170957828Y-97121238D01*
X170919123Y-97159942D01*
X170841714Y-97198647D01*
X170532076Y-97198647D01*
X171770628Y-97585695D02*
X171306171Y-97585695D01*
X171538400Y-97585695D02*
X171538400Y-96772895D01*
X171460990Y-96889009D01*
X171383580Y-96966419D01*
X171306171Y-97005123D01*
X142580533Y-97585695D02*
X142309600Y-97198647D01*
X142116076Y-97585695D02*
X142116076Y-96772895D01*
X142425714Y-96772895D01*
X142503123Y-96811600D01*
X142541828Y-96850304D01*
X142580533Y-96927714D01*
X142580533Y-97043828D01*
X142541828Y-97121238D01*
X142503123Y-97159942D01*
X142425714Y-97198647D01*
X142116076Y-97198647D01*
X143354628Y-97585695D02*
X142890171Y-97585695D01*
X143122400Y-97585695D02*
X143122400Y-96772895D01*
X143044990Y-96889009D01*
X142967580Y-96966419D01*
X142890171Y-97005123D01*
X114164533Y-97585695D02*
X113893600Y-97198647D01*
X113700076Y-97585695D02*
X113700076Y-96772895D01*
X114009714Y-96772895D01*
X114087123Y-96811600D01*
X114125828Y-96850304D01*
X114164533Y-96927714D01*
X114164533Y-97043828D01*
X114125828Y-97121238D01*
X114087123Y-97159942D01*
X114009714Y-97198647D01*
X113700076Y-97198647D01*
X114938628Y-97585695D02*
X114474171Y-97585695D01*
X114706400Y-97585695D02*
X114706400Y-96772895D01*
X114628990Y-96889009D01*
X114551580Y-96966419D01*
X114474171Y-97005123D01*
X170996533Y-76789695D02*
X170725600Y-76402647D01*
X170532076Y-76789695D02*
X170532076Y-75976895D01*
X170841714Y-75976895D01*
X170919123Y-76015600D01*
X170957828Y-76054304D01*
X170996533Y-76131714D01*
X170996533Y-76247828D01*
X170957828Y-76325238D01*
X170919123Y-76363942D01*
X170841714Y-76402647D01*
X170532076Y-76402647D01*
X171770628Y-76789695D02*
X171306171Y-76789695D01*
X171538400Y-76789695D02*
X171538400Y-75976895D01*
X171460990Y-76093009D01*
X171383580Y-76170419D01*
X171306171Y-76209123D01*
X142580533Y-76789695D02*
X142309600Y-76402647D01*
X142116076Y-76789695D02*
X142116076Y-75976895D01*
X142425714Y-75976895D01*
X142503123Y-76015600D01*
X142541828Y-76054304D01*
X142580533Y-76131714D01*
X142580533Y-76247828D01*
X142541828Y-76325238D01*
X142503123Y-76363942D01*
X142425714Y-76402647D01*
X142116076Y-76402647D01*
X143354628Y-76789695D02*
X142890171Y-76789695D01*
X143122400Y-76789695D02*
X143122400Y-75976895D01*
X143044990Y-76093009D01*
X142967580Y-76170419D01*
X142890171Y-76209123D01*
X114164533Y-76789695D02*
X113893600Y-76402647D01*
X113700076Y-76789695D02*
X113700076Y-75976895D01*
X114009714Y-75976895D01*
X114087123Y-76015600D01*
X114125828Y-76054304D01*
X114164533Y-76131714D01*
X114164533Y-76247828D01*
X114125828Y-76325238D01*
X114087123Y-76363942D01*
X114009714Y-76402647D01*
X113700076Y-76402647D01*
X114938628Y-76789695D02*
X114474171Y-76789695D01*
X114706400Y-76789695D02*
X114706400Y-75976895D01*
X114628990Y-76093009D01*
X114551580Y-76170419D01*
X114474171Y-76209123D01*
X170996533Y-55993695D02*
X170725600Y-55606647D01*
X170532076Y-55993695D02*
X170532076Y-55180895D01*
X170841714Y-55180895D01*
X170919123Y-55219600D01*
X170957828Y-55258304D01*
X170996533Y-55335714D01*
X170996533Y-55451828D01*
X170957828Y-55529238D01*
X170919123Y-55567942D01*
X170841714Y-55606647D01*
X170532076Y-55606647D01*
X171770628Y-55993695D02*
X171306171Y-55993695D01*
X171538400Y-55993695D02*
X171538400Y-55180895D01*
X171460990Y-55297009D01*
X171383580Y-55374419D01*
X171306171Y-55413123D01*
X142580533Y-55993695D02*
X142309600Y-55606647D01*
X142116076Y-55993695D02*
X142116076Y-55180895D01*
X142425714Y-55180895D01*
X142503123Y-55219600D01*
X142541828Y-55258304D01*
X142580533Y-55335714D01*
X142580533Y-55451828D01*
X142541828Y-55529238D01*
X142503123Y-55567942D01*
X142425714Y-55606647D01*
X142116076Y-55606647D01*
X143354628Y-55993695D02*
X142890171Y-55993695D01*
X143122400Y-55993695D02*
X143122400Y-55180895D01*
X143044990Y-55297009D01*
X142967580Y-55374419D01*
X142890171Y-55413123D01*
D14*
X192197066Y-128998895D02*
X192197066Y-129579466D01*
X192158361Y-129695580D01*
X192080952Y-129772990D01*
X191964838Y-129811695D01*
X191887428Y-129811695D01*
X192506704Y-128998895D02*
X193009866Y-128998895D01*
X192738933Y-129308533D01*
X192855047Y-129308533D01*
X192932457Y-129347238D01*
X192971161Y-129385942D01*
X193009866Y-129463352D01*
X193009866Y-129656876D01*
X192971161Y-129734285D01*
X192932457Y-129772990D01*
X192855047Y-129811695D01*
X192622819Y-129811695D01*
X192545409Y-129772990D01*
X192506704Y-129734285D01*
X163781066Y-128998895D02*
X163781066Y-129579466D01*
X163742361Y-129695580D01*
X163664952Y-129772990D01*
X163548838Y-129811695D01*
X163471428Y-129811695D01*
X164090704Y-128998895D02*
X164593866Y-128998895D01*
X164322933Y-129308533D01*
X164439047Y-129308533D01*
X164516457Y-129347238D01*
X164555161Y-129385942D01*
X164593866Y-129463352D01*
X164593866Y-129656876D01*
X164555161Y-129734285D01*
X164516457Y-129772990D01*
X164439047Y-129811695D01*
X164206819Y-129811695D01*
X164129409Y-129772990D01*
X164090704Y-129734285D01*
X135365066Y-128998895D02*
X135365066Y-129579466D01*
X135326361Y-129695580D01*
X135248952Y-129772990D01*
X135132838Y-129811695D01*
X135055428Y-129811695D01*
X135674704Y-128998895D02*
X136177866Y-128998895D01*
X135906933Y-129308533D01*
X136023047Y-129308533D01*
X136100457Y-129347238D01*
X136139161Y-129385942D01*
X136177866Y-129463352D01*
X136177866Y-129656876D01*
X136139161Y-129734285D01*
X136100457Y-129772990D01*
X136023047Y-129811695D01*
X135790819Y-129811695D01*
X135713409Y-129772990D01*
X135674704Y-129734285D01*
X192197066Y-108202895D02*
X192197066Y-108783466D01*
X192158361Y-108899580D01*
X192080952Y-108976990D01*
X191964838Y-109015695D01*
X191887428Y-109015695D01*
X192506704Y-108202895D02*
X193009866Y-108202895D01*
X192738933Y-108512533D01*
X192855047Y-108512533D01*
X192932457Y-108551238D01*
X192971161Y-108589942D01*
X193009866Y-108667352D01*
X193009866Y-108860876D01*
X192971161Y-108938285D01*
X192932457Y-108976990D01*
X192855047Y-109015695D01*
X192622819Y-109015695D01*
X192545409Y-108976990D01*
X192506704Y-108938285D01*
X163781066Y-108202895D02*
X163781066Y-108783466D01*
X163742361Y-108899580D01*
X163664952Y-108976990D01*
X163548838Y-109015695D01*
X163471428Y-109015695D01*
X164090704Y-108202895D02*
X164593866Y-108202895D01*
X164322933Y-108512533D01*
X164439047Y-108512533D01*
X164516457Y-108551238D01*
X164555161Y-108589942D01*
X164593866Y-108667352D01*
X164593866Y-108860876D01*
X164555161Y-108938285D01*
X164516457Y-108976990D01*
X164439047Y-109015695D01*
X164206819Y-109015695D01*
X164129409Y-108976990D01*
X164090704Y-108938285D01*
X135365066Y-108202895D02*
X135365066Y-108783466D01*
X135326361Y-108899580D01*
X135248952Y-108976990D01*
X135132838Y-109015695D01*
X135055428Y-109015695D01*
X135674704Y-108202895D02*
X136177866Y-108202895D01*
X135906933Y-108512533D01*
X136023047Y-108512533D01*
X136100457Y-108551238D01*
X136139161Y-108589942D01*
X136177866Y-108667352D01*
X136177866Y-108860876D01*
X136139161Y-108938285D01*
X136100457Y-108976990D01*
X136023047Y-109015695D01*
X135790819Y-109015695D01*
X135713409Y-108976990D01*
X135674704Y-108938285D01*
X192197066Y-87406895D02*
X192197066Y-87987466D01*
X192158361Y-88103580D01*
X192080952Y-88180990D01*
X191964838Y-88219695D01*
X191887428Y-88219695D01*
X192506704Y-87406895D02*
X193009866Y-87406895D01*
X192738933Y-87716533D01*
X192855047Y-87716533D01*
X192932457Y-87755238D01*
X192971161Y-87793942D01*
X193009866Y-87871352D01*
X193009866Y-88064876D01*
X192971161Y-88142285D01*
X192932457Y-88180990D01*
X192855047Y-88219695D01*
X192622819Y-88219695D01*
X192545409Y-88180990D01*
X192506704Y-88142285D01*
X163781066Y-87406895D02*
X163781066Y-87987466D01*
X163742361Y-88103580D01*
X163664952Y-88180990D01*
X163548838Y-88219695D01*
X163471428Y-88219695D01*
X164090704Y-87406895D02*
X164593866Y-87406895D01*
X164322933Y-87716533D01*
X164439047Y-87716533D01*
X164516457Y-87755238D01*
X164555161Y-87793942D01*
X164593866Y-87871352D01*
X164593866Y-88064876D01*
X164555161Y-88142285D01*
X164516457Y-88180990D01*
X164439047Y-88219695D01*
X164206819Y-88219695D01*
X164129409Y-88180990D01*
X164090704Y-88142285D01*
X135365066Y-87406895D02*
X135365066Y-87987466D01*
X135326361Y-88103580D01*
X135248952Y-88180990D01*
X135132838Y-88219695D01*
X135055428Y-88219695D01*
X135674704Y-87406895D02*
X136177866Y-87406895D01*
X135906933Y-87716533D01*
X136023047Y-87716533D01*
X136100457Y-87755238D01*
X136139161Y-87793942D01*
X136177866Y-87871352D01*
X136177866Y-88064876D01*
X136139161Y-88142285D01*
X136100457Y-88180990D01*
X136023047Y-88219695D01*
X135790819Y-88219695D01*
X135713409Y-88180990D01*
X135674704Y-88142285D01*
X192197066Y-66610895D02*
X192197066Y-67191466D01*
X192158361Y-67307580D01*
X192080952Y-67384990D01*
X191964838Y-67423695D01*
X191887428Y-67423695D01*
X192506704Y-66610895D02*
X193009866Y-66610895D01*
X192738933Y-66920533D01*
X192855047Y-66920533D01*
X192932457Y-66959238D01*
X192971161Y-66997942D01*
X193009866Y-67075352D01*
X193009866Y-67268876D01*
X192971161Y-67346285D01*
X192932457Y-67384990D01*
X192855047Y-67423695D01*
X192622819Y-67423695D01*
X192545409Y-67384990D01*
X192506704Y-67346285D01*
X163781066Y-66610895D02*
X163781066Y-67191466D01*
X163742361Y-67307580D01*
X163664952Y-67384990D01*
X163548838Y-67423695D01*
X163471428Y-67423695D01*
X164090704Y-66610895D02*
X164593866Y-66610895D01*
X164322933Y-66920533D01*
X164439047Y-66920533D01*
X164516457Y-66959238D01*
X164555161Y-66997942D01*
X164593866Y-67075352D01*
X164593866Y-67268876D01*
X164555161Y-67346285D01*
X164516457Y-67384990D01*
X164439047Y-67423695D01*
X164206819Y-67423695D01*
X164129409Y-67384990D01*
X164090704Y-67346285D01*
D13*
X170996533Y-127956285D02*
X170957828Y-127994990D01*
X170841714Y-128033695D01*
X170764304Y-128033695D01*
X170648190Y-127994990D01*
X170570780Y-127917580D01*
X170532076Y-127840171D01*
X170493371Y-127685352D01*
X170493371Y-127569238D01*
X170532076Y-127414419D01*
X170570780Y-127337009D01*
X170648190Y-127259600D01*
X170764304Y-127220895D01*
X170841714Y-127220895D01*
X170957828Y-127259600D01*
X170996533Y-127298304D01*
X171306171Y-127298304D02*
X171344876Y-127259600D01*
X171422285Y-127220895D01*
X171615809Y-127220895D01*
X171693219Y-127259600D01*
X171731923Y-127298304D01*
X171770628Y-127375714D01*
X171770628Y-127453123D01*
X171731923Y-127569238D01*
X171267466Y-128033695D01*
X171770628Y-128033695D01*
X142580533Y-127956285D02*
X142541828Y-127994990D01*
X142425714Y-128033695D01*
X142348304Y-128033695D01*
X142232190Y-127994990D01*
X142154780Y-127917580D01*
X142116076Y-127840171D01*
X142077371Y-127685352D01*
X142077371Y-127569238D01*
X142116076Y-127414419D01*
X142154780Y-127337009D01*
X142232190Y-127259600D01*
X142348304Y-127220895D01*
X142425714Y-127220895D01*
X142541828Y-127259600D01*
X142580533Y-127298304D01*
X142890171Y-127298304D02*
X142928876Y-127259600D01*
X143006285Y-127220895D01*
X143199809Y-127220895D01*
X143277219Y-127259600D01*
X143315923Y-127298304D01*
X143354628Y-127375714D01*
X143354628Y-127453123D01*
X143315923Y-127569238D01*
X142851466Y-128033695D01*
X143354628Y-128033695D01*
X114164533Y-127956285D02*
X114125828Y-127994990D01*
X114009714Y-128033695D01*
X113932304Y-128033695D01*
X113816190Y-127994990D01*
X113738780Y-127917580D01*
X113700076Y-127840171D01*
X113661371Y-127685352D01*
X113661371Y-127569238D01*
X113700076Y-127414419D01*
X113738780Y-127337009D01*
X113816190Y-127259600D01*
X113932304Y-127220895D01*
X114009714Y-127220895D01*
X114125828Y-127259600D01*
X114164533Y-127298304D01*
X114474171Y-127298304D02*
X114512876Y-127259600D01*
X114590285Y-127220895D01*
X114783809Y-127220895D01*
X114861219Y-127259600D01*
X114899923Y-127298304D01*
X114938628Y-127375714D01*
X114938628Y-127453123D01*
X114899923Y-127569238D01*
X114435466Y-128033695D01*
X114938628Y-128033695D01*
X170996533Y-107160285D02*
X170957828Y-107198990D01*
X170841714Y-107237695D01*
X170764304Y-107237695D01*
X170648190Y-107198990D01*
X170570780Y-107121580D01*
X170532076Y-107044171D01*
X170493371Y-106889352D01*
X170493371Y-106773238D01*
X170532076Y-106618419D01*
X170570780Y-106541009D01*
X170648190Y-106463600D01*
X170764304Y-106424895D01*
X170841714Y-106424895D01*
X170957828Y-106463600D01*
X170996533Y-106502304D01*
X171306171Y-106502304D02*
X171344876Y-106463600D01*
X171422285Y-106424895D01*
X171615809Y-106424895D01*
X171693219Y-106463600D01*
X171731923Y-106502304D01*
X171770628Y-106579714D01*
X171770628Y-106657123D01*
X171731923Y-106773238D01*
X171267466Y-107237695D01*
X171770628Y-107237695D01*
X142580533Y-107160285D02*
X142541828Y-107198990D01*
X142425714Y-107237695D01*
X142348304Y-107237695D01*
X142232190Y-107198990D01*
X142154780Y-107121580D01*
X142116076Y-107044171D01*
X142077371Y-106889352D01*
X142077371Y-106773238D01*
X142116076Y-106618419D01*
X142154780Y-106541009D01*
X142232190Y-106463600D01*
X142348304Y-106424895D01*
X142425714Y-106424895D01*
X142541828Y-106463600D01*
X142580533Y-106502304D01*
X142890171Y-106502304D02*
X142928876Y-106463600D01*
X143006285Y-106424895D01*
X143199809Y-106424895D01*
X143277219Y-106463600D01*
X143315923Y-106502304D01*
X143354628Y-106579714D01*
X143354628Y-106657123D01*
X143315923Y-106773238D01*
X142851466Y-107237695D01*
X143354628Y-107237695D01*
X114164533Y-107160285D02*
X114125828Y-107198990D01*
X114009714Y-107237695D01*
X113932304Y-107237695D01*
X113816190Y-107198990D01*
X113738780Y-107121580D01*
X113700076Y-107044171D01*
X113661371Y-106889352D01*
X113661371Y-106773238D01*
X113700076Y-106618419D01*
X113738780Y-106541009D01*
X113816190Y-106463600D01*
X113932304Y-106424895D01*
X114009714Y-106424895D01*
X114125828Y-106463600D01*
X114164533Y-106502304D01*
X114474171Y-106502304D02*
X114512876Y-106463600D01*
X114590285Y-106424895D01*
X114783809Y-106424895D01*
X114861219Y-106463600D01*
X114899923Y-106502304D01*
X114938628Y-106579714D01*
X114938628Y-106657123D01*
X114899923Y-106773238D01*
X114435466Y-107237695D01*
X114938628Y-107237695D01*
X170996533Y-86364285D02*
X170957828Y-86402990D01*
X170841714Y-86441695D01*
X170764304Y-86441695D01*
X170648190Y-86402990D01*
X170570780Y-86325580D01*
X170532076Y-86248171D01*
X170493371Y-86093352D01*
X170493371Y-85977238D01*
X170532076Y-85822419D01*
X170570780Y-85745009D01*
X170648190Y-85667600D01*
X170764304Y-85628895D01*
X170841714Y-85628895D01*
X170957828Y-85667600D01*
X170996533Y-85706304D01*
X171306171Y-85706304D02*
X171344876Y-85667600D01*
X171422285Y-85628895D01*
X171615809Y-85628895D01*
X171693219Y-85667600D01*
X171731923Y-85706304D01*
X171770628Y-85783714D01*
X171770628Y-85861123D01*
X171731923Y-85977238D01*
X171267466Y-86441695D01*
X171770628Y-86441695D01*
X142580533Y-86364285D02*
X142541828Y-86402990D01*
X142425714Y-86441695D01*
X142348304Y-86441695D01*
X142232190Y-86402990D01*
X142154780Y-86325580D01*
X142116076Y-86248171D01*
X142077371Y-86093352D01*
X142077371Y-85977238D01*
X142116076Y-85822419D01*
X142154780Y-85745009D01*
X142232190Y-85667600D01*
X142348304Y-85628895D01*
X142425714Y-85628895D01*
X142541828Y-85667600D01*
X142580533Y-85706304D01*
X142890171Y-85706304D02*
X142928876Y-85667600D01*
X143006285Y-85628895D01*
X143199809Y-85628895D01*
X143277219Y-85667600D01*
X143315923Y-85706304D01*
X143354628Y-85783714D01*
X143354628Y-85861123D01*
X143315923Y-85977238D01*
X142851466Y-86441695D01*
X143354628Y-86441695D01*
X114164533Y-86364285D02*
X114125828Y-86402990D01*
X114009714Y-86441695D01*
X113932304Y-86441695D01*
X113816190Y-86402990D01*
X113738780Y-86325580D01*
X113700076Y-86248171D01*
X113661371Y-86093352D01*
X113661371Y-85977238D01*
X113700076Y-85822419D01*
X113738780Y-85745009D01*
X113816190Y-85667600D01*
X113932304Y-85628895D01*
X114009714Y-85628895D01*
X114125828Y-85667600D01*
X114164533Y-85706304D01*
X114474171Y-85706304D02*
X114512876Y-85667600D01*
X114590285Y-85628895D01*
X114783809Y-85628895D01*
X114861219Y-85667600D01*
X114899923Y-85706304D01*
X114938628Y-85783714D01*
X114938628Y-85861123D01*
X114899923Y-85977238D01*
X114435466Y-86441695D01*
X114938628Y-86441695D01*
X170996533Y-65568285D02*
X170957828Y-65606990D01*
X170841714Y-65645695D01*
X170764304Y-65645695D01*
X170648190Y-65606990D01*
X170570780Y-65529580D01*
X170532076Y-65452171D01*
X170493371Y-65297352D01*
X170493371Y-65181238D01*
X170532076Y-65026419D01*
X170570780Y-64949009D01*
X170648190Y-64871600D01*
X170764304Y-64832895D01*
X170841714Y-64832895D01*
X170957828Y-64871600D01*
X170996533Y-64910304D01*
X171306171Y-64910304D02*
X171344876Y-64871600D01*
X171422285Y-64832895D01*
X171615809Y-64832895D01*
X171693219Y-64871600D01*
X171731923Y-64910304D01*
X171770628Y-64987714D01*
X171770628Y-65065123D01*
X171731923Y-65181238D01*
X171267466Y-65645695D01*
X171770628Y-65645695D01*
X142580533Y-65568285D02*
X142541828Y-65606990D01*
X142425714Y-65645695D01*
X142348304Y-65645695D01*
X142232190Y-65606990D01*
X142154780Y-65529580D01*
X142116076Y-65452171D01*
X142077371Y-65297352D01*
X142077371Y-65181238D01*
X142116076Y-65026419D01*
X142154780Y-64949009D01*
X142232190Y-64871600D01*
X142348304Y-64832895D01*
X142425714Y-64832895D01*
X142541828Y-64871600D01*
X142580533Y-64910304D01*
X142890171Y-64910304D02*
X142928876Y-64871600D01*
X143006285Y-64832895D01*
X143199809Y-64832895D01*
X143277219Y-64871600D01*
X143315923Y-64910304D01*
X143354628Y-64987714D01*
X143354628Y-65065123D01*
X143315923Y-65181238D01*
X142851466Y-65645695D01*
X143354628Y-65645695D01*
X174806533Y-129303695D02*
X174535600Y-128916647D01*
X174342076Y-129303695D02*
X174342076Y-128490895D01*
X174651714Y-128490895D01*
X174729123Y-128529600D01*
X174767828Y-128568304D01*
X174806533Y-128645714D01*
X174806533Y-128761828D01*
X174767828Y-128839238D01*
X174729123Y-128877942D01*
X174651714Y-128916647D01*
X174342076Y-128916647D01*
X175116171Y-128568304D02*
X175154876Y-128529600D01*
X175232285Y-128490895D01*
X175425809Y-128490895D01*
X175503219Y-128529600D01*
X175541923Y-128568304D01*
X175580628Y-128645714D01*
X175580628Y-128723123D01*
X175541923Y-128839238D01*
X175077466Y-129303695D01*
X175580628Y-129303695D01*
X146390533Y-129303695D02*
X146119600Y-128916647D01*
X145926076Y-129303695D02*
X145926076Y-128490895D01*
X146235714Y-128490895D01*
X146313123Y-128529600D01*
X146351828Y-128568304D01*
X146390533Y-128645714D01*
X146390533Y-128761828D01*
X146351828Y-128839238D01*
X146313123Y-128877942D01*
X146235714Y-128916647D01*
X145926076Y-128916647D01*
X146700171Y-128568304D02*
X146738876Y-128529600D01*
X146816285Y-128490895D01*
X147009809Y-128490895D01*
X147087219Y-128529600D01*
X147125923Y-128568304D01*
X147164628Y-128645714D01*
X147164628Y-128723123D01*
X147125923Y-128839238D01*
X146661466Y-129303695D01*
X147164628Y-129303695D01*
X117974533Y-129303695D02*
X117703600Y-128916647D01*
X117510076Y-129303695D02*
X117510076Y-128490895D01*
X117819714Y-128490895D01*
X117897123Y-128529600D01*
X117935828Y-128568304D01*
X117974533Y-128645714D01*
X117974533Y-128761828D01*
X117935828Y-128839238D01*
X117897123Y-128877942D01*
X117819714Y-128916647D01*
X117510076Y-128916647D01*
X118284171Y-128568304D02*
X118322876Y-128529600D01*
X118400285Y-128490895D01*
X118593809Y-128490895D01*
X118671219Y-128529600D01*
X118709923Y-128568304D01*
X118748628Y-128645714D01*
X118748628Y-128723123D01*
X118709923Y-128839238D01*
X118245466Y-129303695D01*
X118748628Y-129303695D01*
X174806533Y-108507695D02*
X174535600Y-108120647D01*
X174342076Y-108507695D02*
X174342076Y-107694895D01*
X174651714Y-107694895D01*
X174729123Y-107733600D01*
X174767828Y-107772304D01*
X174806533Y-107849714D01*
X174806533Y-107965828D01*
X174767828Y-108043238D01*
X174729123Y-108081942D01*
X174651714Y-108120647D01*
X174342076Y-108120647D01*
X175116171Y-107772304D02*
X175154876Y-107733600D01*
X175232285Y-107694895D01*
X175425809Y-107694895D01*
X175503219Y-107733600D01*
X175541923Y-107772304D01*
X175580628Y-107849714D01*
X175580628Y-107927123D01*
X175541923Y-108043238D01*
X175077466Y-108507695D01*
X175580628Y-108507695D01*
X146390533Y-108507695D02*
X146119600Y-108120647D01*
X145926076Y-108507695D02*
X145926076Y-107694895D01*
X146235714Y-107694895D01*
X146313123Y-107733600D01*
X146351828Y-107772304D01*
X146390533Y-107849714D01*
X146390533Y-107965828D01*
X146351828Y-108043238D01*
X146313123Y-108081942D01*
X146235714Y-108120647D01*
X145926076Y-108120647D01*
X146700171Y-107772304D02*
X146738876Y-107733600D01*
X146816285Y-107694895D01*
X147009809Y-107694895D01*
X147087219Y-107733600D01*
X147125923Y-107772304D01*
X147164628Y-107849714D01*
X147164628Y-107927123D01*
X147125923Y-108043238D01*
X146661466Y-108507695D01*
X147164628Y-108507695D01*
X117974533Y-108507695D02*
X117703600Y-108120647D01*
X117510076Y-108507695D02*
X117510076Y-107694895D01*
X117819714Y-107694895D01*
X117897123Y-107733600D01*
X117935828Y-107772304D01*
X117974533Y-107849714D01*
X117974533Y-107965828D01*
X117935828Y-108043238D01*
X117897123Y-108081942D01*
X117819714Y-108120647D01*
X117510076Y-108120647D01*
X118284171Y-107772304D02*
X118322876Y-107733600D01*
X118400285Y-107694895D01*
X118593809Y-107694895D01*
X118671219Y-107733600D01*
X118709923Y-107772304D01*
X118748628Y-107849714D01*
X118748628Y-107927123D01*
X118709923Y-108043238D01*
X118245466Y-108507695D01*
X118748628Y-108507695D01*
X174806533Y-87711695D02*
X174535600Y-87324647D01*
X174342076Y-87711695D02*
X174342076Y-86898895D01*
X174651714Y-86898895D01*
X174729123Y-86937600D01*
X174767828Y-86976304D01*
X174806533Y-87053714D01*
X174806533Y-87169828D01*
X174767828Y-87247238D01*
X174729123Y-87285942D01*
X174651714Y-87324647D01*
X174342076Y-87324647D01*
X175116171Y-86976304D02*
X175154876Y-86937600D01*
X175232285Y-86898895D01*
X175425809Y-86898895D01*
X175503219Y-86937600D01*
X175541923Y-86976304D01*
X175580628Y-87053714D01*
X175580628Y-87131123D01*
X175541923Y-87247238D01*
X175077466Y-87711695D01*
X175580628Y-87711695D01*
X146390533Y-87711695D02*
X146119600Y-87324647D01*
X145926076Y-87711695D02*
X145926076Y-86898895D01*
X146235714Y-86898895D01*
X146313123Y-86937600D01*
X146351828Y-86976304D01*
X146390533Y-87053714D01*
X146390533Y-87169828D01*
X146351828Y-87247238D01*
X146313123Y-87285942D01*
X146235714Y-87324647D01*
X145926076Y-87324647D01*
X146700171Y-86976304D02*
X146738876Y-86937600D01*
X146816285Y-86898895D01*
X147009809Y-86898895D01*
X147087219Y-86937600D01*
X147125923Y-86976304D01*
X147164628Y-87053714D01*
X147164628Y-87131123D01*
X147125923Y-87247238D01*
X146661466Y-87711695D01*
X147164628Y-87711695D01*
X117974533Y-87711695D02*
X117703600Y-87324647D01*
X117510076Y-87711695D02*
X117510076Y-86898895D01*
X117819714Y-86898895D01*
X117897123Y-86937600D01*
X117935828Y-86976304D01*
X117974533Y-87053714D01*
X117974533Y-87169828D01*
X117935828Y-87247238D01*
X117897123Y-87285942D01*
X117819714Y-87324647D01*
X117510076Y-87324647D01*
X118284171Y-86976304D02*
X118322876Y-86937600D01*
X118400285Y-86898895D01*
X118593809Y-86898895D01*
X118671219Y-86937600D01*
X118709923Y-86976304D01*
X118748628Y-87053714D01*
X118748628Y-87131123D01*
X118709923Y-87247238D01*
X118245466Y-87711695D01*
X118748628Y-87711695D01*
X174806533Y-66915695D02*
X174535600Y-66528647D01*
X174342076Y-66915695D02*
X174342076Y-66102895D01*
X174651714Y-66102895D01*
X174729123Y-66141600D01*
X174767828Y-66180304D01*
X174806533Y-66257714D01*
X174806533Y-66373828D01*
X174767828Y-66451238D01*
X174729123Y-66489942D01*
X174651714Y-66528647D01*
X174342076Y-66528647D01*
X175116171Y-66180304D02*
X175154876Y-66141600D01*
X175232285Y-66102895D01*
X175425809Y-66102895D01*
X175503219Y-66141600D01*
X175541923Y-66180304D01*
X175580628Y-66257714D01*
X175580628Y-66335123D01*
X175541923Y-66451238D01*
X175077466Y-66915695D01*
X175580628Y-66915695D01*
X146390533Y-66915695D02*
X146119600Y-66528647D01*
X145926076Y-66915695D02*
X145926076Y-66102895D01*
X146235714Y-66102895D01*
X146313123Y-66141600D01*
X146351828Y-66180304D01*
X146390533Y-66257714D01*
X146390533Y-66373828D01*
X146351828Y-66451238D01*
X146313123Y-66489942D01*
X146235714Y-66528647D01*
X145926076Y-66528647D01*
X146700171Y-66180304D02*
X146738876Y-66141600D01*
X146816285Y-66102895D01*
X147009809Y-66102895D01*
X147087219Y-66141600D01*
X147125923Y-66180304D01*
X147164628Y-66257714D01*
X147164628Y-66335123D01*
X147125923Y-66451238D01*
X146661466Y-66915695D01*
X147164628Y-66915695D01*
X179954266Y-118596990D02*
X180070380Y-118635695D01*
X180263904Y-118635695D01*
X180341314Y-118596990D01*
X180380019Y-118558285D01*
X180418723Y-118480876D01*
X180418723Y-118403466D01*
X180380019Y-118326057D01*
X180341314Y-118287352D01*
X180263904Y-118248647D01*
X180109085Y-118209942D01*
X180031676Y-118171238D01*
X179992971Y-118132533D01*
X179954266Y-118055123D01*
X179954266Y-117977714D01*
X179992971Y-117900304D01*
X180031676Y-117861600D01*
X180109085Y-117822895D01*
X180302609Y-117822895D01*
X180418723Y-117861600D01*
X180689657Y-117822895D02*
X180883180Y-118635695D01*
X181038000Y-118055123D01*
X181192819Y-118635695D01*
X181386342Y-117822895D01*
X182121733Y-118635695D02*
X181657276Y-118635695D01*
X181889504Y-118635695D02*
X181889504Y-117822895D01*
X181812095Y-117939009D01*
X181734685Y-118016419D01*
X181657276Y-118055123D01*
X151538266Y-118596990D02*
X151654380Y-118635695D01*
X151847904Y-118635695D01*
X151925314Y-118596990D01*
X151964019Y-118558285D01*
X152002723Y-118480876D01*
X152002723Y-118403466D01*
X151964019Y-118326057D01*
X151925314Y-118287352D01*
X151847904Y-118248647D01*
X151693085Y-118209942D01*
X151615676Y-118171238D01*
X151576971Y-118132533D01*
X151538266Y-118055123D01*
X151538266Y-117977714D01*
X151576971Y-117900304D01*
X151615676Y-117861600D01*
X151693085Y-117822895D01*
X151886609Y-117822895D01*
X152002723Y-117861600D01*
X152273657Y-117822895D02*
X152467180Y-118635695D01*
X152622000Y-118055123D01*
X152776819Y-118635695D01*
X152970342Y-117822895D01*
X153705733Y-118635695D02*
X153241276Y-118635695D01*
X153473504Y-118635695D02*
X153473504Y-117822895D01*
X153396095Y-117939009D01*
X153318685Y-118016419D01*
X153241276Y-118055123D01*
X123122266Y-118596990D02*
X123238380Y-118635695D01*
X123431904Y-118635695D01*
X123509314Y-118596990D01*
X123548019Y-118558285D01*
X123586723Y-118480876D01*
X123586723Y-118403466D01*
X123548019Y-118326057D01*
X123509314Y-118287352D01*
X123431904Y-118248647D01*
X123277085Y-118209942D01*
X123199676Y-118171238D01*
X123160971Y-118132533D01*
X123122266Y-118055123D01*
X123122266Y-117977714D01*
X123160971Y-117900304D01*
X123199676Y-117861600D01*
X123277085Y-117822895D01*
X123470609Y-117822895D01*
X123586723Y-117861600D01*
X123857657Y-117822895D02*
X124051180Y-118635695D01*
X124206000Y-118055123D01*
X124360819Y-118635695D01*
X124554342Y-117822895D01*
X125289733Y-118635695D02*
X124825276Y-118635695D01*
X125057504Y-118635695D02*
X125057504Y-117822895D01*
X124980095Y-117939009D01*
X124902685Y-118016419D01*
X124825276Y-118055123D01*
X179954266Y-97800990D02*
X180070380Y-97839695D01*
X180263904Y-97839695D01*
X180341314Y-97800990D01*
X180380019Y-97762285D01*
X180418723Y-97684876D01*
X180418723Y-97607466D01*
X180380019Y-97530057D01*
X180341314Y-97491352D01*
X180263904Y-97452647D01*
X180109085Y-97413942D01*
X180031676Y-97375238D01*
X179992971Y-97336533D01*
X179954266Y-97259123D01*
X179954266Y-97181714D01*
X179992971Y-97104304D01*
X180031676Y-97065600D01*
X180109085Y-97026895D01*
X180302609Y-97026895D01*
X180418723Y-97065600D01*
X180689657Y-97026895D02*
X180883180Y-97839695D01*
X181038000Y-97259123D01*
X181192819Y-97839695D01*
X181386342Y-97026895D01*
X182121733Y-97839695D02*
X181657276Y-97839695D01*
X181889504Y-97839695D02*
X181889504Y-97026895D01*
X181812095Y-97143009D01*
X181734685Y-97220419D01*
X181657276Y-97259123D01*
X151538266Y-97800990D02*
X151654380Y-97839695D01*
X151847904Y-97839695D01*
X151925314Y-97800990D01*
X151964019Y-97762285D01*
X152002723Y-97684876D01*
X152002723Y-97607466D01*
X151964019Y-97530057D01*
X151925314Y-97491352D01*
X151847904Y-97452647D01*
X151693085Y-97413942D01*
X151615676Y-97375238D01*
X151576971Y-97336533D01*
X151538266Y-97259123D01*
X151538266Y-97181714D01*
X151576971Y-97104304D01*
X151615676Y-97065600D01*
X151693085Y-97026895D01*
X151886609Y-97026895D01*
X152002723Y-97065600D01*
X152273657Y-97026895D02*
X152467180Y-97839695D01*
X152622000Y-97259123D01*
X152776819Y-97839695D01*
X152970342Y-97026895D01*
X153705733Y-97839695D02*
X153241276Y-97839695D01*
X153473504Y-97839695D02*
X153473504Y-97026895D01*
X153396095Y-97143009D01*
X153318685Y-97220419D01*
X153241276Y-97259123D01*
X123122266Y-97800990D02*
X123238380Y-97839695D01*
X123431904Y-97839695D01*
X123509314Y-97800990D01*
X123548019Y-97762285D01*
X123586723Y-97684876D01*
X123586723Y-97607466D01*
X123548019Y-97530057D01*
X123509314Y-97491352D01*
X123431904Y-97452647D01*
X123277085Y-97413942D01*
X123199676Y-97375238D01*
X123160971Y-97336533D01*
X123122266Y-97259123D01*
X123122266Y-97181714D01*
X123160971Y-97104304D01*
X123199676Y-97065600D01*
X123277085Y-97026895D01*
X123470609Y-97026895D01*
X123586723Y-97065600D01*
X123857657Y-97026895D02*
X124051180Y-97839695D01*
X124206000Y-97259123D01*
X124360819Y-97839695D01*
X124554342Y-97026895D01*
X125289733Y-97839695D02*
X124825276Y-97839695D01*
X125057504Y-97839695D02*
X125057504Y-97026895D01*
X124980095Y-97143009D01*
X124902685Y-97220419D01*
X124825276Y-97259123D01*
X179954266Y-77004990D02*
X180070380Y-77043695D01*
X180263904Y-77043695D01*
X180341314Y-77004990D01*
X180380019Y-76966285D01*
X180418723Y-76888876D01*
X180418723Y-76811466D01*
X180380019Y-76734057D01*
X180341314Y-76695352D01*
X180263904Y-76656647D01*
X180109085Y-76617942D01*
X180031676Y-76579238D01*
X179992971Y-76540533D01*
X179954266Y-76463123D01*
X179954266Y-76385714D01*
X179992971Y-76308304D01*
X180031676Y-76269600D01*
X180109085Y-76230895D01*
X180302609Y-76230895D01*
X180418723Y-76269600D01*
X180689657Y-76230895D02*
X180883180Y-77043695D01*
X181038000Y-76463123D01*
X181192819Y-77043695D01*
X181386342Y-76230895D01*
X182121733Y-77043695D02*
X181657276Y-77043695D01*
X181889504Y-77043695D02*
X181889504Y-76230895D01*
X181812095Y-76347009D01*
X181734685Y-76424419D01*
X181657276Y-76463123D01*
X151538266Y-77004990D02*
X151654380Y-77043695D01*
X151847904Y-77043695D01*
X151925314Y-77004990D01*
X151964019Y-76966285D01*
X152002723Y-76888876D01*
X152002723Y-76811466D01*
X151964019Y-76734057D01*
X151925314Y-76695352D01*
X151847904Y-76656647D01*
X151693085Y-76617942D01*
X151615676Y-76579238D01*
X151576971Y-76540533D01*
X151538266Y-76463123D01*
X151538266Y-76385714D01*
X151576971Y-76308304D01*
X151615676Y-76269600D01*
X151693085Y-76230895D01*
X151886609Y-76230895D01*
X152002723Y-76269600D01*
X152273657Y-76230895D02*
X152467180Y-77043695D01*
X152622000Y-76463123D01*
X152776819Y-77043695D01*
X152970342Y-76230895D01*
X153705733Y-77043695D02*
X153241276Y-77043695D01*
X153473504Y-77043695D02*
X153473504Y-76230895D01*
X153396095Y-76347009D01*
X153318685Y-76424419D01*
X153241276Y-76463123D01*
X123122266Y-77004990D02*
X123238380Y-77043695D01*
X123431904Y-77043695D01*
X123509314Y-77004990D01*
X123548019Y-76966285D01*
X123586723Y-76888876D01*
X123586723Y-76811466D01*
X123548019Y-76734057D01*
X123509314Y-76695352D01*
X123431904Y-76656647D01*
X123277085Y-76617942D01*
X123199676Y-76579238D01*
X123160971Y-76540533D01*
X123122266Y-76463123D01*
X123122266Y-76385714D01*
X123160971Y-76308304D01*
X123199676Y-76269600D01*
X123277085Y-76230895D01*
X123470609Y-76230895D01*
X123586723Y-76269600D01*
X123857657Y-76230895D02*
X124051180Y-77043695D01*
X124206000Y-76463123D01*
X124360819Y-77043695D01*
X124554342Y-76230895D01*
X125289733Y-77043695D02*
X124825276Y-77043695D01*
X125057504Y-77043695D02*
X125057504Y-76230895D01*
X124980095Y-76347009D01*
X124902685Y-76424419D01*
X124825276Y-76463123D01*
X179954266Y-56208990D02*
X180070380Y-56247695D01*
X180263904Y-56247695D01*
X180341314Y-56208990D01*
X180380019Y-56170285D01*
X180418723Y-56092876D01*
X180418723Y-56015466D01*
X180380019Y-55938057D01*
X180341314Y-55899352D01*
X180263904Y-55860647D01*
X180109085Y-55821942D01*
X180031676Y-55783238D01*
X179992971Y-55744533D01*
X179954266Y-55667123D01*
X179954266Y-55589714D01*
X179992971Y-55512304D01*
X180031676Y-55473600D01*
X180109085Y-55434895D01*
X180302609Y-55434895D01*
X180418723Y-55473600D01*
X180689657Y-55434895D02*
X180883180Y-56247695D01*
X181038000Y-55667123D01*
X181192819Y-56247695D01*
X181386342Y-55434895D01*
X182121733Y-56247695D02*
X181657276Y-56247695D01*
X181889504Y-56247695D02*
X181889504Y-55434895D01*
X181812095Y-55551009D01*
X181734685Y-55628419D01*
X181657276Y-55667123D01*
X151538266Y-56208990D02*
X151654380Y-56247695D01*
X151847904Y-56247695D01*
X151925314Y-56208990D01*
X151964019Y-56170285D01*
X152002723Y-56092876D01*
X152002723Y-56015466D01*
X151964019Y-55938057D01*
X151925314Y-55899352D01*
X151847904Y-55860647D01*
X151693085Y-55821942D01*
X151615676Y-55783238D01*
X151576971Y-55744533D01*
X151538266Y-55667123D01*
X151538266Y-55589714D01*
X151576971Y-55512304D01*
X151615676Y-55473600D01*
X151693085Y-55434895D01*
X151886609Y-55434895D01*
X152002723Y-55473600D01*
X152273657Y-55434895D02*
X152467180Y-56247695D01*
X152622000Y-55667123D01*
X152776819Y-56247695D01*
X152970342Y-55434895D01*
X153705733Y-56247695D02*
X153241276Y-56247695D01*
X153473504Y-56247695D02*
X153473504Y-55434895D01*
X153396095Y-55551009D01*
X153318685Y-55628419D01*
X153241276Y-55667123D01*
X123122266Y-56208990D02*
X123238380Y-56247695D01*
X123431904Y-56247695D01*
X123509314Y-56208990D01*
X123548019Y-56170285D01*
X123586723Y-56092876D01*
X123586723Y-56015466D01*
X123548019Y-55938057D01*
X123509314Y-55899352D01*
X123431904Y-55860647D01*
X123277085Y-55821942D01*
X123199676Y-55783238D01*
X123160971Y-55744533D01*
X123122266Y-55667123D01*
X123122266Y-55589714D01*
X123160971Y-55512304D01*
X123199676Y-55473600D01*
X123277085Y-55434895D01*
X123470609Y-55434895D01*
X123586723Y-55473600D01*
X123857657Y-55434895D02*
X124051180Y-56247695D01*
X124206000Y-55667123D01*
X124360819Y-56247695D01*
X124554342Y-55434895D01*
X125289733Y-56247695D02*
X124825276Y-56247695D01*
X125057504Y-56247695D02*
X125057504Y-55434895D01*
X124980095Y-55551009D01*
X124902685Y-55628419D01*
X124825276Y-55667123D01*
X117974533Y-66915695D02*
X117703600Y-66528647D01*
X117510076Y-66915695D02*
X117510076Y-66102895D01*
X117819714Y-66102895D01*
X117897123Y-66141600D01*
X117935828Y-66180304D01*
X117974533Y-66257714D01*
X117974533Y-66373828D01*
X117935828Y-66451238D01*
X117897123Y-66489942D01*
X117819714Y-66528647D01*
X117510076Y-66528647D01*
X118284171Y-66180304D02*
X118322876Y-66141600D01*
X118400285Y-66102895D01*
X118593809Y-66102895D01*
X118671219Y-66141600D01*
X118709923Y-66180304D01*
X118748628Y-66257714D01*
X118748628Y-66335123D01*
X118709923Y-66451238D01*
X118245466Y-66915695D01*
X118748628Y-66915695D01*
X114164533Y-65568285D02*
X114125828Y-65606990D01*
X114009714Y-65645695D01*
X113932304Y-65645695D01*
X113816190Y-65606990D01*
X113738780Y-65529580D01*
X113700076Y-65452171D01*
X113661371Y-65297352D01*
X113661371Y-65181238D01*
X113700076Y-65026419D01*
X113738780Y-64949009D01*
X113816190Y-64871600D01*
X113932304Y-64832895D01*
X114009714Y-64832895D01*
X114125828Y-64871600D01*
X114164533Y-64910304D01*
X114474171Y-64910304D02*
X114512876Y-64871600D01*
X114590285Y-64832895D01*
X114783809Y-64832895D01*
X114861219Y-64871600D01*
X114899923Y-64910304D01*
X114938628Y-64987714D01*
X114938628Y-65065123D01*
X114899923Y-65181238D01*
X114435466Y-65645695D01*
X114938628Y-65645695D01*
D14*
X135365066Y-66610895D02*
X135365066Y-67191466D01*
X135326361Y-67307580D01*
X135248952Y-67384990D01*
X135132838Y-67423695D01*
X135055428Y-67423695D01*
X135674704Y-66610895D02*
X136177866Y-66610895D01*
X135906933Y-66920533D01*
X136023047Y-66920533D01*
X136100457Y-66959238D01*
X136139161Y-66997942D01*
X136177866Y-67075352D01*
X136177866Y-67268876D01*
X136139161Y-67346285D01*
X136100457Y-67384990D01*
X136023047Y-67423695D01*
X135790819Y-67423695D01*
X135713409Y-67384990D01*
X135674704Y-67346285D01*
D13*
X114164533Y-55993695D02*
X113893600Y-55606647D01*
X113700076Y-55993695D02*
X113700076Y-55180895D01*
X114009714Y-55180895D01*
X114087123Y-55219600D01*
X114125828Y-55258304D01*
X114164533Y-55335714D01*
X114164533Y-55451828D01*
X114125828Y-55529238D01*
X114087123Y-55567942D01*
X114009714Y-55606647D01*
X113700076Y-55606647D01*
X114938628Y-55993695D02*
X114474171Y-55993695D01*
X114706400Y-55993695D02*
X114706400Y-55180895D01*
X114628990Y-55297009D01*
X114551580Y-55374419D01*
X114474171Y-55413123D01*
X134484533Y-66153695D02*
X134213600Y-65766647D01*
X134020076Y-66153695D02*
X134020076Y-65340895D01*
X134329714Y-65340895D01*
X134407123Y-65379600D01*
X134445828Y-65418304D01*
X134484533Y-65495714D01*
X134484533Y-65611828D01*
X134445828Y-65689238D01*
X134407123Y-65727942D01*
X134329714Y-65766647D01*
X134020076Y-65766647D01*
X134755466Y-65340895D02*
X135258628Y-65340895D01*
X134987695Y-65650533D01*
X135103809Y-65650533D01*
X135181219Y-65689238D01*
X135219923Y-65727942D01*
X135258628Y-65805352D01*
X135258628Y-65998876D01*
X135219923Y-66076285D01*
X135181219Y-66114990D01*
X135103809Y-66153695D01*
X134871580Y-66153695D01*
X134794171Y-66114990D01*
X134755466Y-66076285D01*
X120050076Y-55739695D02*
X120050076Y-54926895D01*
X120243600Y-54926895D01*
X120359714Y-54965600D01*
X120437123Y-55043009D01*
X120475828Y-55120419D01*
X120514533Y-55275238D01*
X120514533Y-55391352D01*
X120475828Y-55546171D01*
X120437123Y-55623580D01*
X120359714Y-55700990D01*
X120243600Y-55739695D01*
X120050076Y-55739695D01*
X121288628Y-55739695D02*
X120824171Y-55739695D01*
X121056400Y-55739695D02*
X121056400Y-54926895D01*
X120978990Y-55043009D01*
X120901580Y-55120419D01*
X120824171Y-55159123D01*
X114164533Y-57440285D02*
X114125828Y-57478990D01*
X114009714Y-57517695D01*
X113932304Y-57517695D01*
X113816190Y-57478990D01*
X113738780Y-57401580D01*
X113700076Y-57324171D01*
X113661371Y-57169352D01*
X113661371Y-57053238D01*
X113700076Y-56898419D01*
X113738780Y-56821009D01*
X113816190Y-56743600D01*
X113932304Y-56704895D01*
X114009714Y-56704895D01*
X114125828Y-56743600D01*
X114164533Y-56782304D01*
X114938628Y-57517695D02*
X114474171Y-57517695D01*
X114706400Y-57517695D02*
X114706400Y-56704895D01*
X114628990Y-56821009D01*
X114551580Y-56898419D01*
X114474171Y-56937123D01*
X127650723Y-60260895D02*
X127650723Y-60918876D01*
X127689428Y-60996285D01*
X127728133Y-61034990D01*
X127805542Y-61073695D01*
X127960361Y-61073695D01*
X128037771Y-61034990D01*
X128076476Y-60996285D01*
X128115180Y-60918876D01*
X128115180Y-60260895D01*
X128927980Y-61073695D02*
X128463523Y-61073695D01*
X128695752Y-61073695D02*
X128695752Y-60260895D01*
X128618342Y-60377009D01*
X128540933Y-60454419D01*
X128463523Y-60493123D01*
X134230533Y-58202285D02*
X134191828Y-58240990D01*
X134075714Y-58279695D01*
X133998304Y-58279695D01*
X133882190Y-58240990D01*
X133804780Y-58163580D01*
X133766076Y-58086171D01*
X133727371Y-57931352D01*
X133727371Y-57815238D01*
X133766076Y-57660419D01*
X133804780Y-57583009D01*
X133882190Y-57505600D01*
X133998304Y-57466895D01*
X134075714Y-57466895D01*
X134191828Y-57505600D01*
X134230533Y-57544304D01*
X134927219Y-57737828D02*
X134927219Y-58279695D01*
X134733695Y-57428190D02*
X134540171Y-58008761D01*
X135043333Y-58008761D01*
X129404533Y-67346285D02*
X129365828Y-67384990D01*
X129249714Y-67423695D01*
X129172304Y-67423695D01*
X129056190Y-67384990D01*
X128978780Y-67307580D01*
X128940076Y-67230171D01*
X128901371Y-67075352D01*
X128901371Y-66959238D01*
X128940076Y-66804419D01*
X128978780Y-66727009D01*
X129056190Y-66649600D01*
X129172304Y-66610895D01*
X129249714Y-66610895D01*
X129365828Y-66649600D01*
X129404533Y-66688304D01*
X129675466Y-66610895D02*
X130178628Y-66610895D01*
X129907695Y-66920533D01*
X130023809Y-66920533D01*
X130101219Y-66959238D01*
X130139923Y-66997942D01*
X130178628Y-67075352D01*
X130178628Y-67268876D01*
X130139923Y-67346285D01*
X130101219Y-67384990D01*
X130023809Y-67423695D01*
X129791580Y-67423695D01*
X129714171Y-67384990D01*
X129675466Y-67346285D01*
X122445976Y-67425595D02*
X122445976Y-66612795D01*
X122639500Y-66612795D01*
X122755614Y-66651500D01*
X122833023Y-66728909D01*
X122871728Y-66806319D01*
X122910433Y-66961138D01*
X122910433Y-67077252D01*
X122871728Y-67232071D01*
X122833023Y-67309480D01*
X122755614Y-67386890D01*
X122639500Y-67425595D01*
X122445976Y-67425595D01*
X123220071Y-66690204D02*
X123258776Y-66651500D01*
X123336185Y-66612795D01*
X123529709Y-66612795D01*
X123607119Y-66651500D01*
X123645823Y-66690204D01*
X123684528Y-66767614D01*
X123684528Y-66845023D01*
X123645823Y-66961138D01*
X123181366Y-67425595D01*
X123684528Y-67425595D01*
X116974323Y-60260895D02*
X116974323Y-60918876D01*
X117013028Y-60996285D01*
X117051733Y-61034990D01*
X117129142Y-61073695D01*
X117283961Y-61073695D01*
X117361371Y-61034990D01*
X117400076Y-60996285D01*
X117438780Y-60918876D01*
X117438780Y-60260895D01*
X117787123Y-60338304D02*
X117825828Y-60299600D01*
X117903238Y-60260895D01*
X118096761Y-60260895D01*
X118174171Y-60299600D01*
X118212876Y-60338304D01*
X118251580Y-60415714D01*
X118251580Y-60493123D01*
X118212876Y-60609238D01*
X117748419Y-61073695D01*
X118251580Y-61073695D01*
X134230533Y-56932285D02*
X134191828Y-56970990D01*
X134075714Y-57009695D01*
X133998304Y-57009695D01*
X133882190Y-56970990D01*
X133804780Y-56893580D01*
X133766076Y-56816171D01*
X133727371Y-56661352D01*
X133727371Y-56545238D01*
X133766076Y-56390419D01*
X133804780Y-56313009D01*
X133882190Y-56235600D01*
X133998304Y-56196895D01*
X134075714Y-56196895D01*
X134191828Y-56235600D01*
X134230533Y-56274304D01*
X134965923Y-56196895D02*
X134578876Y-56196895D01*
X134540171Y-56583942D01*
X134578876Y-56545238D01*
X134656285Y-56506533D01*
X134849809Y-56506533D01*
X134927219Y-56545238D01*
X134965923Y-56583942D01*
X135004628Y-56661352D01*
X135004628Y-56854876D01*
X134965923Y-56932285D01*
X134927219Y-56970990D01*
X134849809Y-57009695D01*
X134656285Y-57009695D01*
X134578876Y-56970990D01*
X134540171Y-56932285D01*
M02*
