M48
; DRILL file {KiCad (5.1.5)-2} date 21/08/2020 6:58:47 PM
; FORMAT={3:3/ absolute / metric / suppress leading zeros}
; #@! TF.CreationDate,2020-08-21T18:58:47+01:00
; #@! TF.GenerationSoftware,Kicad,Pcbnew,(5.1.5)-2
FMAT,2
METRIC,TZ
T1C0.305
T2C1.000
T3C0.500
T4C2.000
%
G90
G05
T1
X113784Y-57910
X113784Y-78706
X113784Y-99502
X113784Y-120298
X114800Y-57910
X114800Y-78706
X114800Y-99502
X114800Y-120298
X115816Y-65276
X115816Y-86072
X115816Y-106868
X115816Y-127664
X116324Y-59180
X116324Y-79976
X116324Y-100772
X116324Y-121568
X116332Y-58166
X116332Y-64262
X116332Y-78962
X116332Y-85058
X116332Y-99758
X116332Y-105854
X116332Y-120554
X116332Y-126650
X118102Y-65022
X118102Y-85818
X118102Y-106614
X118102Y-127410
X122420Y-65022
X122420Y-85818
X122420Y-106614
X122420Y-127410
X122674Y-57656
X122674Y-78452
X122674Y-99248
X122674Y-120044
X124206Y-59182
X124206Y-79978
X124206Y-100774
X124206Y-121570
X125722Y-57656
X125722Y-78452
X125722Y-99248
X125722Y-120044
X128262Y-62228
X128262Y-83024
X128262Y-103820
X128262Y-124616
X130294Y-62990
X130294Y-83786
X130294Y-104582
X130294Y-125378
X130548Y-59942
X130548Y-80738
X130548Y-101534
X130548Y-122330
X130802Y-66800
X130802Y-87596
X130802Y-108392
X130802Y-129188
X131310Y-62482
X131310Y-83278
X131310Y-104074
X131310Y-124870
X133096Y-61468
X133096Y-82264
X133096Y-103060
X133096Y-123856
X135120Y-56894
X135120Y-77690
X135120Y-98486
X135120Y-119282
X135882Y-61466
X135882Y-82262
X135882Y-103058
X135882Y-123854
X142200Y-57910
X142200Y-78706
X142200Y-99502
X142200Y-120298
X143216Y-57910
X143216Y-78706
X143216Y-99502
X143216Y-120298
X144232Y-65276
X144232Y-86072
X144232Y-106868
X144232Y-127664
X144740Y-59180
X144740Y-79976
X144740Y-100772
X144740Y-121568
X144748Y-58166
X144748Y-64262
X144748Y-78962
X144748Y-85058
X144748Y-99758
X144748Y-105854
X144748Y-120554
X144748Y-126650
X146518Y-65022
X146518Y-85818
X146518Y-106614
X146518Y-127410
X150836Y-65022
X150836Y-85818
X150836Y-106614
X150836Y-127410
X151090Y-57656
X151090Y-78452
X151090Y-99248
X151090Y-120044
X152622Y-59182
X152622Y-79978
X152622Y-100774
X152622Y-121570
X154138Y-57656
X154138Y-78452
X154138Y-99248
X154138Y-120044
X156678Y-62228
X156678Y-83024
X156678Y-103820
X156678Y-124616
X158710Y-62990
X158710Y-83786
X158710Y-104582
X158710Y-125378
X158964Y-59942
X158964Y-80738
X158964Y-101534
X158964Y-122330
X159218Y-66800
X159218Y-87596
X159218Y-108392
X159218Y-129188
X159726Y-62482
X159726Y-83278
X159726Y-104074
X159726Y-124870
X161512Y-61468
X161512Y-82264
X161512Y-103060
X161512Y-123856
X163536Y-56894
X163536Y-77690
X163536Y-98486
X163536Y-119282
X164298Y-61466
X164298Y-82262
X164298Y-103058
X164298Y-123854
X170616Y-57910
X170616Y-78706
X170616Y-99502
X170616Y-120298
X171632Y-57910
X171632Y-78706
X171632Y-99502
X171632Y-120298
X172648Y-65276
X172648Y-86072
X172648Y-106868
X172648Y-127664
X173156Y-59180
X173156Y-79976
X173156Y-100772
X173156Y-121568
X173164Y-58166
X173164Y-64262
X173164Y-78962
X173164Y-85058
X173164Y-99758
X173164Y-105854
X173164Y-120554
X173164Y-126650
X174934Y-65022
X174934Y-85818
X174934Y-106614
X174934Y-127410
X179252Y-65022
X179252Y-85818
X179252Y-106614
X179252Y-127410
X179506Y-57656
X179506Y-78452
X179506Y-99248
X179506Y-120044
X181038Y-59182
X181038Y-79978
X181038Y-100774
X181038Y-121570
X182554Y-57656
X182554Y-78452
X182554Y-99248
X182554Y-120044
X185094Y-62228
X185094Y-83024
X185094Y-103820
X185094Y-124616
X187126Y-62990
X187126Y-83786
X187126Y-104582
X187126Y-125378
X187380Y-59942
X187380Y-80738
X187380Y-101534
X187380Y-122330
X187634Y-66800
X187634Y-87596
X187634Y-108392
X187634Y-129188
X188142Y-62482
X188142Y-83278
X188142Y-104074
X188142Y-124870
X189928Y-61468
X189928Y-82264
X189928Y-103060
X189928Y-123856
X191952Y-56894
X191952Y-77690
X191952Y-98486
X191952Y-119282
X192714Y-61466
X192714Y-82262
X192714Y-103058
X192714Y-123854
T2
X114300Y-95440
X116840Y-95440
X119380Y-95440
X121920Y-95440
X124460Y-95440
X127000Y-95440
X129540Y-95440
X132080Y-95440
X134620Y-95440
X137160Y-95440
X171132Y-74644
X173672Y-74644
X176212Y-74644
X178752Y-74644
X181292Y-74644
X183832Y-74644
X186372Y-74644
X188912Y-74644
X191452Y-74644
X193992Y-74644
X171132Y-69088
X173672Y-69088
X176212Y-69088
X178752Y-69088
X181292Y-69088
X183832Y-69088
X186372Y-69088
X188912Y-69088
X191452Y-69088
X193992Y-69088
X193738Y-57658
X193738Y-60198
X193738Y-62738
X193738Y-65278
X114300Y-110680
X116840Y-110680
X119380Y-110680
X121920Y-110680
X124460Y-110680
X127000Y-110680
X129540Y-110680
X132080Y-110680
X134620Y-110680
X137160Y-110680
X142716Y-95440
X145256Y-95440
X147796Y-95440
X150336Y-95440
X152876Y-95440
X155416Y-95440
X157956Y-95440
X160496Y-95440
X163036Y-95440
X165576Y-95440
X114300Y-69088
X116840Y-69088
X119380Y-69088
X121920Y-69088
X124460Y-69088
X127000Y-69088
X129540Y-69088
X132080Y-69088
X134620Y-69088
X137160Y-69088
X171132Y-95440
X173672Y-95440
X176212Y-95440
X178752Y-95440
X181292Y-95440
X183832Y-95440
X186372Y-95440
X188912Y-95440
X191452Y-95440
X193992Y-95440
X136906Y-57658
X136906Y-60198
X136906Y-62738
X136906Y-65278
X193738Y-99250
X193738Y-101790
X193738Y-104330
X193738Y-106870
X142716Y-89884
X145256Y-89884
X147796Y-89884
X150336Y-89884
X152876Y-89884
X155416Y-89884
X157956Y-89884
X160496Y-89884
X163036Y-89884
X165576Y-89884
X136906Y-78454
X136906Y-80994
X136906Y-83534
X136906Y-86074
X171132Y-53848
X173672Y-53848
X176212Y-53848
X178752Y-53848
X181292Y-53848
X183832Y-53848
X186372Y-53848
X188912Y-53848
X191452Y-53848
X193992Y-53848
X114300Y-89884
X116840Y-89884
X119380Y-89884
X121920Y-89884
X124460Y-89884
X127000Y-89884
X129540Y-89884
X132080Y-89884
X134620Y-89884
X137160Y-89884
X142716Y-69088
X145256Y-69088
X147796Y-69088
X150336Y-69088
X152876Y-69088
X155416Y-69088
X157956Y-69088
X160496Y-69088
X163036Y-69088
X165576Y-69088
X142716Y-53848
X145256Y-53848
X147796Y-53848
X150336Y-53848
X152876Y-53848
X155416Y-53848
X157956Y-53848
X160496Y-53848
X163036Y-53848
X165576Y-53848
X142716Y-110680
X145256Y-110680
X147796Y-110680
X150336Y-110680
X152876Y-110680
X155416Y-110680
X157956Y-110680
X160496Y-110680
X163036Y-110680
X165576Y-110680
X165322Y-78454
X165322Y-80994
X165322Y-83534
X165322Y-86074
X136906Y-120046
X136906Y-122586
X136906Y-125126
X136906Y-127666
X171132Y-89884
X173672Y-89884
X176212Y-89884
X178752Y-89884
X181292Y-89884
X183832Y-89884
X186372Y-89884
X188912Y-89884
X191452Y-89884
X193992Y-89884
X142716Y-116236
X145256Y-116236
X147796Y-116236
X150336Y-116236
X152876Y-116236
X155416Y-116236
X157956Y-116236
X160496Y-116236
X163036Y-116236
X165576Y-116236
X142716Y-74644
X145256Y-74644
X147796Y-74644
X150336Y-74644
X152876Y-74644
X155416Y-74644
X157956Y-74644
X160496Y-74644
X163036Y-74644
X165576Y-74644
X171132Y-110680
X173672Y-110680
X176212Y-110680
X178752Y-110680
X181292Y-110680
X183832Y-110680
X186372Y-110680
X188912Y-110680
X191452Y-110680
X193992Y-110680
X114300Y-131476
X116840Y-131476
X119380Y-131476
X121920Y-131476
X124460Y-131476
X127000Y-131476
X129540Y-131476
X132080Y-131476
X134620Y-131476
X137160Y-131476
X193738Y-120046
X193738Y-122586
X193738Y-125126
X193738Y-127666
X165322Y-57658
X165322Y-60198
X165322Y-62738
X165322Y-65278
X136906Y-99250
X136906Y-101790
X136906Y-104330
X136906Y-106870
X114300Y-74644
X116840Y-74644
X119380Y-74644
X121920Y-74644
X124460Y-74644
X127000Y-74644
X129540Y-74644
X132080Y-74644
X134620Y-74644
X137160Y-74644
X114300Y-116236
X116840Y-116236
X119380Y-116236
X121920Y-116236
X124460Y-116236
X127000Y-116236
X129540Y-116236
X132080Y-116236
X134620Y-116236
X137160Y-116236
X171132Y-131476
X173672Y-131476
X176212Y-131476
X178752Y-131476
X181292Y-131476
X183832Y-131476
X186372Y-131476
X188912Y-131476
X191452Y-131476
X193992Y-131476
X114300Y-53848
X116840Y-53848
X119380Y-53848
X121920Y-53848
X124460Y-53848
X127000Y-53848
X129540Y-53848
X132080Y-53848
X134620Y-53848
X137160Y-53848
X193738Y-78454
X193738Y-80994
X193738Y-83534
X193738Y-86074
X171132Y-116236
X173672Y-116236
X176212Y-116236
X178752Y-116236
X181292Y-116236
X183832Y-116236
X186372Y-116236
X188912Y-116236
X191452Y-116236
X193992Y-116236
X165322Y-120046
X165322Y-122586
X165322Y-125126
X165322Y-127666
X142716Y-131476
X145256Y-131476
X147796Y-131476
X150336Y-131476
X152876Y-131476
X155416Y-131476
X157956Y-131476
X160496Y-131476
X163036Y-131476
X165576Y-131476
X165322Y-99250
X165322Y-101790
X165322Y-104330
X165322Y-106870
T3
X167596Y-60318
X167596Y-61068
X167596Y-61818
X169096Y-60318
X169096Y-61068
X169096Y-61818
X153596Y-50318
X153596Y-51818
X154346Y-50318
X154346Y-51818
X155096Y-50318
X155096Y-51818
X139180Y-60318
X139180Y-61068
X139180Y-61818
X140680Y-60318
X140680Y-61068
X140680Y-61818
X139180Y-81114
X139180Y-81864
X139180Y-82614
X140680Y-81114
X140680Y-81864
X140680Y-82614
X167596Y-101910
X167596Y-102660
X167596Y-103410
X169096Y-101910
X169096Y-102660
X169096Y-103410
X125180Y-112706
X125180Y-114206
X125930Y-112706
X125930Y-114206
X126680Y-112706
X126680Y-114206
X182012Y-50318
X182012Y-51818
X182762Y-50318
X182762Y-51818
X183512Y-50318
X183512Y-51818
X167596Y-81114
X167596Y-81864
X167596Y-82614
X169096Y-81114
X169096Y-81864
X169096Y-82614
X139180Y-122706
X139180Y-123456
X139180Y-124206
X140680Y-122706
X140680Y-123456
X140680Y-124206
X153596Y-112706
X153596Y-114206
X154346Y-112706
X154346Y-114206
X155096Y-112706
X155096Y-114206
X125180Y-71114
X125180Y-72614
X125930Y-71114
X125930Y-72614
X126680Y-71114
X126680Y-72614
X125180Y-50318
X125180Y-51818
X125930Y-50318
X125930Y-51818
X126680Y-50318
X126680Y-51818
X125180Y-91910
X125180Y-93410
X125930Y-91910
X125930Y-93410
X126680Y-91910
X126680Y-93410
X153596Y-71114
X153596Y-72614
X154346Y-71114
X154346Y-72614
X155096Y-71114
X155096Y-72614
X167596Y-122706
X167596Y-123456
X167596Y-124206
X169096Y-122706
X169096Y-123456
X169096Y-124206
X153596Y-91910
X153596Y-93410
X154346Y-91910
X154346Y-93410
X155096Y-91910
X155096Y-93410
X182012Y-112706
X182012Y-114206
X182762Y-112706
X182762Y-114206
X183512Y-112706
X183512Y-114206
X153596Y-133502
X153596Y-135002
X154346Y-133502
X154346Y-135002
X155096Y-133502
X155096Y-135002
X182012Y-91910
X182012Y-93410
X182762Y-91910
X182762Y-93410
X183512Y-91910
X183512Y-93410
X182012Y-71114
X182012Y-72614
X182762Y-71114
X182762Y-72614
X183512Y-71114
X183512Y-72614
X125180Y-133502
X125180Y-135002
X125930Y-133502
X125930Y-135002
X126680Y-133502
X126680Y-135002
X139180Y-101910
X139180Y-102660
X139180Y-103410
X140680Y-101910
X140680Y-102660
X140680Y-103410
X182012Y-133502
X182012Y-135002
X182762Y-133502
X182762Y-135002
X183512Y-133502
X183512Y-135002
T4
X192514Y-137752
X115014Y-137752
X192514Y-47568
X115014Y-47568
T0
M30
